<svg width="354" height="100" viewBox="0 0 354 100" fill="none" xmlns="http://www.w3.org/2000/svg">
  <defs/>
  <defs/>
  <path d="M354 0H0v100h354V0z" fill="#E5E5E5"/>
  <path d="M291 14H63c-19.882 0-36 16.118-36 36s16.118 36 36 36h228c19.882 0 36-16.118 36-36s-16.118-36-36-36z" fill="#8DAFA5"/>
  <path d="M84.176 58.32a7.533 7.533 0 01-3.072-.625 7.567 7.567 0 01-2.448-1.704l1.2-1.392a6.794 6.794 0 001.968 1.44c.768.352 1.56.528 2.376.528 1.04 0 1.848-.232 2.424-.696.576-.48.864-1.104.864-1.872 0-.4-.072-.736-.216-1.008a1.89 1.89 0 00-.552-.72 3.47 3.47 0 00-.816-.552c-.32-.16-.664-.328-1.032-.504l-2.256-.984c-.368-.16-.744-.352-1.128-.576a4.642 4.642 0 01-1.032-.816 3.95 3.95 0 01-.744-1.128c-.192-.448-.288-.96-.288-1.536 0-.592.12-1.144.36-1.656.256-.512.6-.952 1.032-1.32.448-.384.968-.68 1.56-.888A6.118 6.118 0 0184.368 42c.944 0 1.816.184 2.616.552.8.352 1.48.816 2.04 1.392l-1.08 1.296a5.363 5.363 0 00-1.608-1.08c-.576-.272-1.232-.408-1.968-.408-.88 0-1.592.208-2.136.624-.528.4-.792.96-.792 1.68 0 .384.072.712.216.984.16.256.368.488.624.696.256.192.536.368.84.528.304.144.616.28.936.408l2.232.96c.448.192.872.416 1.272.672.4.24.744.528 1.032.864.288.32.512.704.672 1.152.176.432.264.936.264 1.512 0 .624-.128 1.208-.384 1.752a4.194 4.194 0 01-1.056 1.44c-.464.4-1.024.72-1.68.96-.656.224-1.4.336-2.232.336zm8.26-.289V46.367h1.969v11.664h-1.968zm1.009-14.064c-.384 0-.712-.12-.984-.36a1.196 1.196 0 01-.384-.912c0-.384.128-.688.384-.912.272-.24.6-.36.984-.36s.704.12.96.36c.272.224.408.528.408.912 0 .368-.136.672-.408.912-.256.24-.576.36-.96.36zm8.834 19.44c-.72 0-1.376-.072-1.968-.216a4.74 4.74 0 01-1.536-.6 3.206 3.206 0 01-.984-.984c-.224-.384-.336-.832-.336-1.344 0-.496.152-.968.456-1.416.304-.448.72-.856 1.248-1.224v-.096a2.447 2.447 0 01-.744-.72c-.192-.32-.288-.712-.288-1.176 0-.496.136-.928.408-1.296a3.68 3.68 0 01.864-.864v-.096c-.384-.32-.736-.744-1.056-1.272-.304-.544-.456-1.168-.456-1.872 0-.64.112-1.216.336-1.728.24-.512.56-.944.96-1.296.4-.368.864-.648 1.392-.84a5.082 5.082 0 011.704-.288c.32 0 .616.032.888.096.288.048.544.112.768.192h4.056v1.512h-2.4c.272.272.496.616.672 1.032.192.416.288.872.288 1.368 0 .624-.112 1.192-.336 1.704-.224.496-.528.92-.912 1.272-.384.336-.84.6-1.368.792a4.678 4.678 0 01-1.656.288c-.288 0-.584-.032-.888-.096a5.031 5.031 0 01-.864-.312 2.685 2.685 0 00-.528.6c-.144.208-.216.472-.216.792 0 .368.144.672.432.912.288.24.832.36 1.632.36h2.256c1.36 0 2.376.224 3.048.672.688.432 1.032 1.136 1.032 2.112 0 .544-.136 1.056-.408 1.536a3.917 3.917 0 01-1.176 1.296c-.512.368-1.136.656-1.872.864-.72.224-1.536.336-2.448.336zm0-10.392c.336 0 .648-.064.936-.192.304-.128.568-.312.792-.552.24-.24.424-.528.552-.864.128-.352.192-.744.192-1.176 0-.864-.24-1.528-.72-1.992a2.385 2.385 0 00-1.752-.72c-.688 0-1.272.24-1.752.72-.48.464-.72 1.128-.72 1.992 0 .432.064.824.192 1.176.128.336.304.624.528.864.24.24.504.424.792.552.304.128.624.192.96.192zm.288 9.024a4.93 4.93 0 001.512-.216 3.796 3.796 0 001.176-.528c.32-.208.568-.456.744-.744.176-.288.264-.584.264-.888 0-.544-.2-.92-.6-1.128-.4-.208-.984-.312-1.752-.312h-2.016c-.224 0-.472-.016-.744-.048a3.242 3.242 0 01-.768-.144c-.416.304-.72.624-.912.96A2.016 2.016 0 0099.183 60c0 .624.296 1.12.888 1.488.608.368 1.44.552 2.496.552zm7.87-4.008V46.367h1.632l.168 1.68h.072a9.29 9.29 0 011.752-1.392c.624-.384 1.344-.576 2.16-.576 1.232 0 2.128.384 2.688 1.152.576.768.864 1.904.864 3.408v7.392h-1.968v-7.128c0-1.104-.176-1.896-.528-2.376-.352-.496-.912-.744-1.68-.744-.608 0-1.144.152-1.608.456-.464.304-.992.752-1.584 1.344v8.448h-1.968zm23.713.288c-.8 0-1.552-.112-2.256-.336a4.575 4.575 0 01-1.8-1.152c-.496-.544-.888-1.248-1.176-2.112-.288-.864-.432-1.928-.432-3.192v-9.24h1.992v9.288c0 .944.096 1.736.288 2.376.192.64.448 1.152.768 1.536.336.384.728.664 1.176.84.448.16.928.24 1.44.24.528 0 1.016-.08 1.464-.24.448-.176.84-.456 1.176-.84.336-.384.6-.896.792-1.536.192-.64.288-1.432.288-2.376v-9.288h1.92v9.24c0 1.264-.144 2.328-.432 3.192-.288.864-.688 1.568-1.2 2.112a4.38 4.38 0 01-1.776 1.152 7.167 7.167 0 01-2.232.336zm9.685 4.632V46.367h1.632l.168 1.344h.072a9.03 9.03 0 011.728-1.152c.64-.32 1.304-.48 1.992-.48.752 0 1.416.144 1.992.432a3.725 3.725 0 011.44 1.2c.384.512.672 1.136.864 1.872.208.72.312 1.536.312 2.448 0 .992-.136 1.88-.408 2.664-.272.768-.64 1.424-1.104 1.968-.464.544-1 .96-1.608 1.248a4.65 4.65 0 01-1.92.408c-.544 0-1.088-.12-1.632-.36a8.368 8.368 0 01-1.608-.984l.048 2.04v3.936h-1.968zm4.824-6.288c.48 0 .92-.104 1.32-.312a3.208 3.208 0 001.056-.912c.304-.4.536-.888.696-1.464.176-.576.264-1.224.264-1.944 0-.64-.056-1.224-.168-1.752-.112-.528-.296-.976-.552-1.344-.24-.384-.56-.68-.96-.888-.384-.208-.848-.312-1.392-.312-.496 0-1 .136-1.512.408-.496.272-1.032.664-1.608 1.176v6.12c.528.448 1.04.768 1.536.96.496.176.936.264 1.32.264zm15.141 1.368l-3.24-11.664h2.016l1.728 6.744c.128.56.248 1.104.36 1.632.112.528.224 1.064.336 1.608h.096c.128-.544.256-1.08.384-1.608.128-.544.264-1.088.408-1.632l1.8-6.744h1.92l1.824 6.744c.144.56.28 1.104.408 1.632.144.528.28 1.064.408 1.608h.096c.128-.544.248-1.08.36-1.608.112-.528.232-1.072.36-1.632l1.704-6.744h1.872l-3.12 11.664h-2.4l-1.68-6.264c-.144-.56-.28-1.112-.408-1.656a49.193 49.193 0 00-.384-1.704h-.096c-.128.592-.256 1.168-.384 1.728a36.262 36.262 0 01-.432 1.656l-1.632 6.24H163.8zm15.379 0V46.367h1.968v11.664h-1.968zm1.008-14.064c-.384 0-.712-.12-.984-.36a1.196 1.196 0 01-.384-.912c0-.384.128-.688.384-.912.272-.24.6-.36.984-.36s.704.12.96.36c.272.224.408.528.408.912 0 .368-.136.672-.408.912-.256.24-.576.36-.96.36zm8.57 14.352c-.624 0-1.152-.096-1.584-.288a2.832 2.832 0 01-1.032-.792 3.187 3.187 0 01-.552-1.224 6.973 6.973 0 01-.168-1.584v-6.456h-1.728v-1.488l1.824-.12.24-3.264h1.656v3.264h3.144v1.608h-3.144v6.48c0 .72.128 1.28.384 1.68.272.384.744.576 1.416.576.208 0 .432-.032.672-.096.24-.064.456-.136.648-.216l.384 1.488a8.35 8.35 0 01-1.056.288 4.358 4.358 0 01-1.104.144zm4.438-.288V40.943h1.968V45.6l-.072 2.4c.56-.528 1.144-.976 1.752-1.344.608-.384 1.32-.576 2.136-.576 1.232 0 2.128.384 2.688 1.152.576.768.864 1.904.864 3.408v7.392h-1.968v-7.128c0-1.104-.176-1.896-.528-2.376-.352-.496-.912-.744-1.68-.744-.608 0-1.144.152-1.608.456-.464.304-.992.752-1.584 1.344v8.448h-1.968zm18.051 0V42.287h9.072v1.68h-7.08v4.944h5.976v1.704h-5.976v5.712h7.32v1.704h-9.312zm12.464 0V46.367h1.632l.168 1.68h.072a7.895 7.895 0 011.656-1.392 3.618 3.618 0 011.968-.576c.896 0 1.592.2 2.088.6.512.384.888.928 1.128 1.632.608-.672 1.216-1.208 1.824-1.608a3.566 3.566 0 012.016-.624c1.2 0 2.088.384 2.664 1.152.592.768.888 1.904.888 3.408v7.392h-1.968v-7.128c0-1.104-.176-1.896-.528-2.376-.352-.496-.896-.744-1.632-.744-.88 0-1.856.6-2.928 1.8v8.448h-1.968v-7.128c0-1.104-.176-1.896-.528-2.376-.352-.496-.904-.744-1.656-.744-.88 0-1.856.6-2.928 1.8v8.448h-1.968zm22.587.288c-.976 0-1.792-.288-2.448-.864-.64-.576-.96-1.392-.96-2.448 0-1.28.568-2.256 1.704-2.928 1.136-.688 2.952-1.168 5.448-1.44 0-.368-.04-.728-.12-1.08a2.54 2.54 0 00-.36-.936 1.845 1.845 0 00-.744-.648c-.304-.176-.696-.264-1.176-.264-.672 0-1.304.128-1.896.384a9.249 9.249 0 00-1.584.864l-.768-1.368c.544-.352 1.208-.688 1.992-1.008.784-.336 1.648-.504 2.592-.504 1.424 0 2.456.44 3.096 1.32.64.864.96 2.024.96 3.48v7.152h-1.632l-.168-1.392h-.072c-.56.464-1.16.864-1.8 1.2-.64.32-1.328.48-2.064.48zm.576-1.584c.56 0 1.088-.128 1.584-.384.496-.272 1.024-.664 1.584-1.176v-3.24c-.976.128-1.8.28-2.472.456-.656.176-1.192.384-1.608.624-.4.24-.696.52-.888.84-.176.304-.264.64-.264 1.008 0 .672.2 1.152.6 1.44.4.288.888.432 1.464.432zm8.829 1.296V46.367h1.968v11.664h-1.968zm1.008-14.064c-.384 0-.712-.12-.984-.36a1.196 1.196 0 01-.384-.912c0-.384.128-.688.384-.912.272-.24.6-.36.984-.36s.704.12.96.36c.272.224.408.528.408.912 0 .368-.136.672-.408.912-.256.24-.576.36-.96.36zm6.987 14.352c-.752 0-1.288-.224-1.608-.672-.32-.448-.48-1.104-.48-1.968V40.943h1.968v14.88c0 .32.056.544.168.672a.5.5 0 00.384.192h.168c.064 0 .152-.016.264-.048l.264 1.488c-.128.064-.28.112-.456.144-.176.032-.4.048-.672.048z" fill="white"/>
</svg>
