<svg width="113" height="113" viewBox="0 0 113 113" fill="none"
     xmlns="http://www.w3.org/2000/svg">
    <rect width="113" height="113" fill="#E5E5E5"/>
    <g id="IconCirclesWithOutlines">
        <g id="circleOutline6">
            <mask id="path-2-inside-1" fill="white">
                <path d="M111.915 56.277C111.915 86.6527 87.2909 111.277 56.9153 111.277C26.5396 111.277 1.91528 86.6527 1.91528 56.277C1.91528 25.9014 26.5396 1.27705 56.9153 1.27705C87.2909 1.27705 111.915 25.9014 111.915 56.277Z"/>
            </mask>
            <path d="M111.915 56.277C111.915 86.6527 87.2909 111.277 56.9153 111.277C26.5396 111.277 1.91528 86.6527 1.91528 56.277C1.91528 25.9014 26.5396 1.27705 56.9153 1.27705C87.2909 1.27705 111.915 25.9014 111.915 56.277Z"
                  stroke-width="2"
                  mask="url(#path-2-inside-1)"/>
        </g>
        <g id="circleOutline5">
            <mask id="path-3-inside-2" fill="white">
                <path d="M112.915 56.277C112.915 87.205 87.8432 112.277 56.9153 112.277C25.9873 112.277 0.915283 87.205 0.915283 56.277C0.915283 25.3491 25.9873 0.277046 56.9153 0.277046C87.8432 0.277046 112.915 25.3491 112.915 56.277Z"/>
            </mask>
            <path d="M112.915 56.277C112.915 87.205 87.8432 112.277 56.9153 112.277C25.9873 112.277 0.915283 87.205 0.915283 56.277C0.915283 25.3491 25.9873 0.277046 56.9153 0.277046C87.8432 0.277046 112.915 25.3491 112.915 56.277Z"
                  stroke-width="2"
                  mask="url(#path-3-inside-2)"/>
        </g>
        <g id="circleOutline4">
            <mask id="path-4-inside-3" fill="white">
                <path d="M110.915 56.277C110.915 86.1004 86.7387 110.277 56.9153 110.277C27.0919 110.277 2.91528 86.1004 2.91528 56.277C2.91528 26.4537 27.0919 2.27705 56.9153 2.27705C86.7387 2.27705 110.915 26.4537 110.915 56.277Z"/>
            </mask>
            <path d="M110.915 56.277C110.915 86.1004 86.7387 110.277 56.9153 110.277C27.0919 110.277 2.91528 86.1004 2.91528 56.277C2.91528 26.4537 27.0919 2.27705 56.9153 2.27705C86.7387 2.27705 110.915 26.4537 110.915 56.277Z"
                  stroke-width="2"
                  mask="url(#path-4-inside-3)"/>
        </g>
        <g id="circleOutline3">
            <mask id="path-5-inside-4" fill="white">
                <path d="M109.915 56.277C109.915 85.5481 86.1864 109.277 56.9153 109.277C27.6442 109.277 3.91528 85.5481 3.91528 56.277C3.91528 27.006 27.6442 3.27705 56.9153 3.27705C86.1864 3.27705 109.915 27.006 109.915 56.277Z"/>
            </mask>
            <path d="M109.915 56.277C109.915 85.5481 86.1864 109.277 56.9153 109.277C27.6442 109.277 3.91528 85.5481 3.91528 56.277C3.91528 27.006 27.6442 3.27705 56.9153 3.27705C86.1864 3.27705 109.915 27.006 109.915 56.277Z"
                  stroke-width="2"
                  mask="url(#path-5-inside-4)"/>
        </g>
        <g id="circleOutline2">
            <mask id="path-6-inside-5" fill="white">
                <path d="M108.915 56.277C108.915 84.9958 85.6341 108.277 56.9153 108.277C28.1965 108.277 4.91528 84.9958 4.91528 56.277C4.91528 27.5582 28.1965 4.27705 56.9153 4.27705C85.6341 4.27705 108.915 27.5582 108.915 56.277Z"/>
            </mask>
            <path d="M108.915 56.277C108.915 84.9958 85.6341 108.277 56.9153 108.277C28.1965 108.277 4.91528 84.9958 4.91528 56.277C4.91528 27.5582 28.1965 4.27705 56.9153 4.27705C85.6341 4.27705 108.915 27.5582 108.915 56.277Z"
                  stroke-width="2"
                  mask="url(#path-6-inside-5)"/>
        </g>
        <g id="circleOutline1">
            <mask id="path-7-inside-6" fill="white">
                <path d="M107.915 56.277C107.915 84.4436 85.0818 107.277 56.9153 107.277C28.7488 107.277 5.91528 84.4436 5.91528 56.277C5.91528 28.1105 28.7488 5.27705 56.9153 5.27705C85.0818 5.27705 107.915 28.1105 107.915 56.277Z"/>
            </mask>
            <path d="M107.915 56.277C107.915 84.4436 85.0818 107.277 56.9153 107.277C28.7488 107.277 5.91528 84.4436 5.91528 56.277C5.91528 28.1105 28.7488 5.27705 56.9153 5.27705C85.0818 5.27705 107.915 28.1105 107.915 56.277Z"
                  stroke-width="2"
                  mask="url(#path-7-inside-6)"/>
        </g>
        <path id="centerCircle"
              d="M106.915 56.277C106.915 83.8913 84.5295 106.277 56.9153 106.277C29.301 106.277 6.91528 83.8913 6.91528 56.277C6.91528 28.6628 29.301 6.27705 56.9153 6.27705C84.5295 6.27705 106.915 28.6628 106.915 56.277Z"
              fill="url(#paint6_linear)"/>
    </g>
    <defs>
        <linearGradient id="paint6_linear" x1="6.91616" y1="56.2778"
                        x2="106.917" y2="56.2778"
                        gradientUnits="userSpaceOnUse">
            <stop offset="0.0357" stop-color="#7BC5F8"/>
            <stop offset="0.3407" stop-color="#7EC7F9"/>
            <stop offset="0.6006" stop-color="#89CDFA"/>
            <stop offset="0.8432" stop-color="#9AD7FD"/>
            <stop offset="0.99" stop-color="#A9E0FF"/>
        </linearGradient>
    </defs>
</svg>
