<svg width="636" height="79" viewBox="0 0 636 79" fill="none" xmlns="http://www.w3.org/2000/svg">
<path d="M0.218262 65.8081C0.218262 74.1281 3.67426 78.2881 10.5863 78.2881C13.7223 78.2881 16.5383 77.2641 19.0343 75.2161C21.5303 73.2321 23.9623 69.5521 26.3303 64.1761C28.6343 59.0561 30.8103 52.6561 32.8583 44.9761C34.9703 37.2961 36.6663 30.0641 37.9463 23.2801C39.2903 16.4321 39.9623 12.1761 39.9623 10.5121C39.9623 9.7441 39.7703 8.94411 39.3863 8.11211C39.0663 7.21611 38.5863 6.51211 37.9463 6.00011L44.7623 5.90411C46.1703 5.90411 47.5783 5.71211 48.9863 5.32811C50.4583 4.94411 51.5143 4.2081 52.1543 3.1201C49.6583 2.6721 46.5223 2.22411 42.7463 1.77611C38.9703 1.32811 35.4183 1.10411 32.0903 1.10411C22.3623 1.10411 17.1463 3.37612 16.4423 7.92012C19.4503 7.21612 22.2343 6.73612 24.7943 6.48012C27.4183 6.22412 31.0983 6.06411 35.8343 6.00011C34.2343 14.4481 31.9623 24.8161 29.0183 37.1041C26.1383 49.3921 23.5783 58.6401 21.3383 64.8481C19.9303 68.6241 18.5863 71.2481 17.3063 72.7201C16.0263 74.1921 14.5223 74.9281 12.7943 74.9281C10.8103 74.9281 9.30626 74.1281 8.28226 72.5281C7.25826 70.9281 6.74626 68.6881 6.74626 65.8081C6.74626 61.3921 7.89826 56.2721 10.2023 50.4481C9.17826 49.9361 8.28226 49.6801 7.51426 49.6801C5.40226 49.6801 3.67426 51.3761 2.33026 54.7681C0.922262 58.0961 0.218262 61.7761 0.218262 65.8081Z" fill="#0C0A0A"/>
<path d="M39.1791 72.8218C41.2271 74.9338 44.1391 75.9898 47.9151 75.9898C52.7151 75.9898 57.3871 74.2618 61.9311 70.8058C66.4751 67.3498 67.9159 66.9018 70.4759 61.2058C71.5639 59.3498 72.9079 56.7258 74.5079 53.3338C76.1079 49.8778 77.6119 46.3579 79.0199 42.7738C79.3399 42.9658 79.9479 43.3818 80.8439 44.0218C81.7399 44.5978 82.5399 45.3658 83.2439 46.3258C84.0119 47.2218 84.3959 48.4698 84.3959 50.0698C84.3959 51.1578 84.1719 52.3418 83.7239 53.6218C83.3399 54.8378 82.7319 56.5018 81.8999 58.6138C80.0439 62.7098 79.1159 65.8458 79.1159 68.0218C79.1159 69.8778 79.7239 71.3818 80.9399 72.5338C82.2199 73.6858 83.9479 74.2618 86.1239 74.2618C89.9639 74.2618 93.7719 72.5658 97.5479 69.1738C97.6665 69.1293 100.281 67.0049 101.573 65.9482C101.573 65.9482 101.682 67.7593 102.052 68.8445C102.605 70.4676 102.395 70.4153 104.443 72.5273C106.491 74.6393 109.403 75.6953 113.179 75.6953C117.979 75.6953 122.651 73.9673 127.195 70.5113C131.739 67.0553 134.162 63.3999 134.162 63.3999L132.785 67.8259C132.785 67.8259 131.441 72.1459 131.441 72.3379C131.441 72.7859 132.081 73.2339 133.361 73.6819C134.577 74.1299 135.665 74.3539 136.625 74.3539C138.161 70.1299 140.305 65.8419 143.057 61.4899C145.809 57.0739 148.593 53.4259 151.409 50.5459C154.289 47.6659 156.625 46.2259 158.417 46.2259C160.017 46.2259 160.817 47.4419 160.817 49.8739C160.817 51.7939 160.401 54.1299 159.569 56.8819C158.801 59.5699 157.745 62.8979 156.401 66.8659C155.313 69.8099 154.769 71.5059 154.769 71.9539C154.769 72.5299 155.313 72.9779 156.401 73.2979C157.553 73.6819 158.641 73.8739 159.665 73.8739L160.529 72.0499C162.129 68.7219 163.377 66.3539 164.273 64.9459C167.793 59.5699 170.385 55.8579 172.049 53.8099C173.777 51.6979 175.377 50.6419 176.849 50.6419C177.617 50.6419 178.257 50.9299 178.769 51.5059C179.345 52.0819 179.633 52.9459 179.633 54.0979C179.633 54.8659 179.473 55.7939 179.153 56.8819C178.897 57.9699 178.609 59.0579 178.289 60.1459C177.265 63.4739 176.753 66.0019 176.753 67.7299C176.753 69.7779 177.297 71.4419 178.385 72.7219C179.473 74.0659 181.073 74.7379 183.185 74.7379C186.705 74.7379 189.905 73.0739 192.785 69.7459L196.619 63.8807L196.442 66.1978C196.442 68.5658 197.082 70.4858 198.362 71.9578C199.642 73.4938 201.466 74.2618 203.834 74.2618C207.674 74.2618 211.322 72.7578 214.778 69.7498C215.821 68.8584 217.679 66.7632 217.679 66.7632L217.582 68.3098C217.582 70.8698 218.254 72.8218 219.598 74.1658C220.878 75.5738 222.574 76.2778 224.686 76.2778C226.926 76.2778 229.166 75.3818 231.406 73.5898C233.71 71.7978 236.302 68.9818 239.182 65.1418C238.99 66.1658 238.894 67.0938 238.894 67.9258C238.894 69.7818 239.47 71.3498 240.622 72.6298C241.838 73.9738 243.566 74.6458 245.806 74.6458C248.046 74.6458 250.382 73.9098 252.814 72.4378C255.246 70.9658 257.518 68.9178 259.63 66.2938L262.688 61.6601L262.467 65.4298C262.467 68.1178 262.819 70.4538 263.523 72.4378C264.291 74.4218 265.251 75.4138 266.403 75.4138C267.491 75.4138 268.483 74.5818 269.379 72.9178C270.275 71.2538 271.491 68.5658 273.027 64.8538C275.075 59.7978 276.963 55.8938 278.691 53.1418C280.483 50.3258 282.563 48.9178 284.931 48.9178C286.019 48.9178 286.883 49.3018 287.523 50.0698C288.227 50.7738 288.579 51.9258 288.579 53.5258C288.579 55.1898 288.067 57.7498 287.043 61.2058C286.083 64.3418 285.603 66.6138 285.603 68.0218C285.603 69.8138 286.179 71.2538 287.331 72.3418C288.483 73.4938 290.115 74.0698 292.227 74.0698C295.811 74.0698 299.235 72.5018 302.499 69.3658C305.827 66.2298 308.547 62.2298 310.659 57.3658L309.411 56.2138C307.491 60.3738 305.059 63.9898 302.115 67.0618C299.171 70.0698 296.611 71.5738 294.435 71.5738C293.539 71.5738 292.835 71.2858 292.323 70.7098C291.811 70.0698 291.555 69.1418 291.555 67.9258C291.555 66.9658 291.715 65.9738 292.035 64.9498C292.355 63.9258 292.835 62.5498 293.475 60.8218C294.243 58.7738 294.787 57.1098 295.107 55.8298C295.491 54.5498 295.683 53.2058 295.683 51.7978C295.683 49.4298 295.075 47.4138 293.859 45.7498C292.643 44.0218 290.819 43.1579 288.387 43.1579C284.419 43.1579 280.803 45.4618 277.539 50.0698C274.339 54.6138 271.459 60.5978 268.899 68.0218C268.771 66.8698 268.707 65.7818 268.707 64.7578C268.707 61.9418 268.995 58.7738 269.571 55.2538C270.211 51.6698 271.107 48.5338 272.259 45.8458C275.843 43.6698 279.331 40.2778 282.723 35.6698C286.179 31.0618 288.963 26.2619 291.075 21.2699C293.251 16.2779 294.339 12.2779 294.339 9.26987C294.339 7.73387 294.051 6.35789 293.475 5.14189C292.963 3.86189 292.195 3.22188 291.171 3.22188C288.483 3.22188 284.835 7.12585 280.227 14.9339C275.619 22.7419 271.491 31.6378 267.843 41.6218L263.464 56.4656C263.464 56.4656 258.318 64.7578 255.502 67.4458C252.686 70.0698 250.35 71.3818 248.494 71.3818C247.406 71.3818 246.574 70.9658 245.998 70.1338C245.486 69.2378 245.23 68.2458 245.23 67.1578C245.23 65.9418 245.55 64.6298 246.19 63.2218C246.83 61.7498 247.694 60.0858 248.782 58.2298C248.91 58.0378 249.262 57.3978 249.838 56.3098C250.478 55.1578 250.798 54.3258 250.798 53.8138C250.798 53.1738 250.35 52.6618 249.454 52.2778C248.622 51.8298 247.79 51.5418 246.958 51.4138C242.99 57.2378 239.278 62.1978 235.822 66.2938C232.366 70.3258 229.358 72.3418 226.798 72.3418C225.07 72.3418 224.206 71.0938 224.206 68.5978C224.206 65.4618 225.23 61.7178 227.278 57.3658C229.39 53.0138 231.982 49.2698 235.054 46.1338C238.19 42.9978 241.166 41.4298 243.982 41.4298C245.582 41.4298 246.766 41.9419 247.534 42.9659C248.302 43.9259 248.686 45.2058 248.686 46.8058C248.686 47.8938 248.526 49.0138 248.206 50.1658C249.678 50.1658 250.83 49.8458 251.662 49.2058C252.494 48.5658 252.91 47.5098 252.91 46.0378C252.91 43.9258 252.078 42.1979 250.414 40.8539C248.75 39.5099 246.67 38.8378 244.174 38.8378C240.206 38.8378 236.142 40.4699 231.982 43.7339C227.822 46.9979 224.366 50.9658 221.614 55.6378C216.75 65.4298 212.09 70.9018 207.098 70.9018C205.434 70.9018 204.218 70.5178 203.45 69.7498C202.746 68.9178 202.394 67.3818 202.394 65.1418C202.394 62.6458 203.002 60.0218 204.218 57.2698C205.498 54.4538 207.194 51.2858 209.306 47.7658C211.354 44.3738 212.378 42.2298 212.378 41.3338C212.378 40.6938 212.154 40.1818 211.706 39.7978C211.322 39.4138 210.842 39.2218 210.266 39.2218C208.218 39.2218 206.106 40.8859 203.93 44.2139C201.818 47.5419 200.026 51.4138 198.554 55.8298C196.57 60.1178 194.609 64.1139 192.497 67.0579C190.385 69.9379 188.145 71.3779 185.777 71.3779C183.857 71.3779 182.897 70.2899 182.897 68.1139C182.897 66.7699 183.441 64.4019 184.529 61.0099C185.169 59.0259 185.649 57.3619 185.969 56.0179C186.289 54.6099 186.449 53.2979 186.449 52.0819C186.449 50.2899 186.001 48.8179 185.105 47.6659C184.273 46.5139 182.897 45.9379 180.977 45.9379C178.033 45.9379 175.249 47.3139 172.625 50.0659C170.001 52.7539 167.473 56.3059 165.041 60.7219C165.745 58.9939 166.417 56.8499 167.057 54.2899C167.697 51.7299 168.017 49.3619 168.017 47.1859C168.017 45.0099 167.601 43.2499 166.769 41.9059C166.001 40.5619 164.689 39.8899 162.833 39.8899C159.697 39.8899 156.305 41.6819 152.657 45.2659C149.073 48.8499 145.713 53.1379 142.577 58.1299C144.241 52.5619 145.073 48.9139 145.073 47.1859C145.073 45.5219 144.209 44.6899 142.481 44.6899C141.649 44.6899 140.817 44.9139 139.985 45.3619C139.153 45.7459 138.513 46.1939 138.065 46.7059C138.001 49.3299 137.377 52.1394 136.353 55.7234C133.857 60.5234 130.971 64.7513 127.003 68.0153C123.035 71.2793 119.099 72.9113 115.195 72.9113C112.443 72.9113 110.491 72.1433 109.339 70.6073C108.187 69.0713 107.611 67.1513 107.611 64.8473C107.611 63.6313 107.739 62.4793 107.995 61.3913C111.707 61.0073 115.419 59.9513 119.131 58.2233C122.843 56.4953 125.883 54.2873 128.251 51.5993C130.619 48.8473 131.803 45.9034 131.803 42.7673C131.803 38.8633 129.819 36.9113 125.851 36.9113C122.203 36.9113 118.459 38.4153 114.619 41.4233C110.843 44.3673 107.707 48.0153 105.211 52.3673L102.371 58.5821L101.642 61.8661L100.908 62.8378C99.0519 65.0778 97.0039 66.9658 94.7639 68.5018C92.5879 70.0378 90.5399 70.8058 88.6199 70.8058C86.6999 70.8058 85.7399 69.8458 85.7399 67.9258C85.7399 66.5818 86.4439 64.3738 87.8519 61.3018C88.7479 59.0618 89.4199 57.2698 89.8679 55.9258C90.3159 54.5178 90.5399 53.1098 90.5399 51.7018C90.5399 49.5258 89.9639 47.7658 88.8119 46.4218C87.7239 45.0138 86.1879 43.6059 84.2039 42.1979C82.9879 41.3659 82.0919 40.6938 81.5159 40.1818C81.0039 39.6058 80.7479 38.9978 80.7479 38.3578C80.8119 38.0378 81.0039 37.4298 81.3239 36.5338C81.6439 35.6378 81.8039 35.0619 81.8039 34.8059C81.8039 33.2699 81.3559 32.5018 80.4599 32.5018C80.0759 32.5018 79.5319 32.7899 78.8279 33.3659C78.1879 33.9419 77.6119 34.7418 77.0999 35.7658C76.6519 36.7898 76.4279 37.8779 76.4279 39.0299C76.4279 39.9259 76.7479 40.6938 77.3879 41.3338C75.2759 47.5418 72.6839 53.6218 69.6119 59.5738C67.1159 64.3738 65.7071 65.0458 61.7391 68.3098C57.7711 71.5738 53.8351 73.2058 49.9311 73.2058C47.1791 73.2058 45.2271 72.4378 44.0751 70.9018C42.9231 69.3658 42.3471 67.4458 42.3471 65.1418C42.3471 63.9258 42.4751 62.7738 42.7311 61.6858C46.4431 61.3018 50.1551 60.2458 53.8671 58.5178C57.5791 56.7898 60.6191 54.5818 62.9871 51.8938C65.3551 49.1418 66.5391 46.1978 66.5391 43.0618C66.5391 39.1578 64.5551 37.2058 60.5871 37.2058C56.9391 37.2058 53.1951 38.7098 49.3551 41.7178C45.5791 44.6618 42.4431 48.3098 39.9471 52.6618C37.4511 57.0138 36.2031 61.0778 36.2031 64.8538C36.2031 68.1178 37.1951 70.7738 39.1791 72.8218Z" fill="#0C0A0A"/>
<path d="M346.79 76.5601C347.942 77.7761 349.894 78.3841 352.646 78.3841C352.582 77.9361 352.55 77.2321 352.55 76.2721C352.55 73.7121 352.838 71.1201 353.414 68.4961C353.99 65.8081 355.014 61.7761 356.486 56.4001L357.35 53.2321C362.15 35.8241 367.174 20.5601 372.422 7.44011L379.238 7.53612C382.886 7.53612 386.022 7.24812 388.646 6.67212C391.27 6.03212 393.606 4.81611 395.654 3.02411C393.862 3.02411 391.878 2.9281 389.702 2.7361C387.526 2.5441 385.382 2.3201 383.27 2.0641C376.102 1.2961 369.926 0.912109 364.742 0.912109C357.574 0.912109 351.942 1.5841 347.846 2.9281C343.75 4.2081 341.574 6.35212 341.318 9.36012C345.414 8.65612 349.19 8.20811 352.646 8.01611C356.102 7.76011 361.286 7.56811 368.198 7.44011C365.126 14.0321 361.766 22.0961 358.118 31.6321C354.47 41.1681 351.302 49.8081 348.614 57.5521C347.462 60.8161 346.566 63.5681 345.926 65.8081C345.35 67.9841 345.062 69.9041 345.062 71.5681C345.062 73.7441 345.638 75.4081 346.79 76.5601Z" fill="#0C0A0A"/>
<path d="M537.09 27.7921C537.858 28.3041 538.818 28.5601 539.97 28.5601C541.506 28.5601 542.914 28.0161 544.194 26.9281C545.538 25.7761 546.21 24.5921 546.21 23.3761C546.21 21.3921 545.154 20.4001 543.042 20.4001C541.442 20.4001 539.874 20.9121 538.338 21.9361C536.802 22.9601 536.034 24.1121 536.034 25.3921C536.034 26.4161 536.386 27.2161 537.09 27.7921Z" fill="#0C0A0A"/>
<path d="M216.646 22.8518C215.898 23.7007 215.114 24.1158 215.123 25.0526C215.128 25.4647 215.453 25.9494 215.653 26.3101C216.094 27.1068 216.883 27.036 217.769 27.249C219.198 27.593 220.19 26.8112 221.234 25.7762C222.089 24.9293 223.055 24.1848 222.664 23.047C222.348 22.1284 221.575 21.8319 220.628 21.6175C219.178 21.2895 217.628 21.7363 216.646 22.8518Z" fill="#0C0A0A"/>
<path fill-rule="evenodd" clip-rule="evenodd" d="M383.969 74.2561C380.193 74.2561 377.281 73.2001 375.233 71.0881C373.249 69.0401 372.257 66.3841 372.257 63.1201C372.257 59.3441 373.505 55.2801 376.001 50.9281C378.497 46.5761 381.633 42.9281 385.409 39.9841C389.249 36.9761 392.993 35.4721 396.641 35.4721C400.609 35.4721 402.592 37.4241 402.592 41.3281C402.592 44.4641 401.409 47.4081 399.041 50.1601C396.673 52.8481 393.633 55.0561 389.921 56.7841C386.209 58.5121 382.497 59.5681 378.785 59.9521C378.529 61.0401 378.401 62.1921 378.401 63.4081C378.401 65.7121 378.977 67.6321 380.129 69.1681C381.281 70.7041 383.233 71.4721 385.985 71.4721C389.889 71.4721 393.825 69.8401 397.793 66.5761C401.761 63.3121 404.609 59.5681 407.105 54.7681C408.129 51.3761 408.673 48.3681 408.737 45.7441C409.185 45.2321 409.825 44.7841 410.657 44.4001C411.489 43.9521 412.321 43.7281 413.153 43.7281C414.881 43.7281 415.745 44.5601 415.745 46.2241C415.745 47.1841 415.457 48.8801 414.881 51.3121C414.305 53.6801 413.569 56.2081 412.673 58.8961C415.745 54.1601 419.009 50.1601 422.465 46.8961C425.921 43.6321 429.313 42.0001 432.641 42.0001C435.009 42.0001 436.769 42.8641 437.921 44.5921C439.137 46.2561 439.745 48.2721 439.745 50.6401C439.745 52.0481 439.553 53.3921 439.169 54.6721C438.849 55.9521 438.337 57.4241 437.633 59.0881C437.057 60.4961 436.609 61.7121 436.289 62.7361C435.969 63.7601 435.809 64.7841 435.809 65.8081C435.809 68.2401 436.769 69.4561 438.689 69.4561C440.865 69.4561 443.166 67.3048 445.409 65.1361C447.597 63.0212 447.76 62.9739 449.872 58.7499L455.088 40.5601C458.928 30.3841 463.248 21.3281 468.048 13.3921C472.912 5.45609 476.624 1.48811 479.184 1.48811C480.144 1.48811 480.88 2.12811 481.392 3.40811C481.968 4.62411 482.256 6.00012 482.256 7.53612C482.256 10.5441 481.2 14.5441 479.088 19.5361C476.976 24.5281 474.224 29.3281 470.832 33.9361C467.44 38.5441 463.952 41.9361 460.368 44.1121C459.536 45.6481 458.544 48.5281 457.392 52.7521C456.304 56.9761 455.76 60.8481 455.76 64.3681C455.76 70.3841 457.52 73.3921 461.04 73.3921C462.896 73.3921 464.816 72.6241 466.8 71.0881C468.784 69.6161 470.384 67.6961 471.6 65.3281C469.36 64.1761 467.632 62.4801 466.416 60.2401C465.2 57.9361 464.592 55.5041 464.592 52.9441C464.592 49.9361 465.36 47.5041 466.896 45.6481C468.496 43.7281 470.416 42.7681 472.656 42.7681C474.512 42.7681 475.984 43.5361 477.072 45.0721C478.16 46.6081 478.704 48.7841 478.704 51.6001C478.704 55.8881 477.648 60.1441 475.536 64.3681C475.984 64.4961 476.656 64.5601 477.552 64.5601C480.688 64.5601 483.44 63.2161 485.808 60.5281C488.24 57.8401 490.16 54.8321 491.568 51.5041C493.04 48.1761 494.544 44.2081 496.08 39.6001C495.44 38.9601 495.12 38.1281 495.12 37.1041C495.12 36.0801 495.344 35.0881 495.792 34.1281C496.304 33.1041 496.88 32.3041 497.52 31.7281C498.224 31.0881 498.832 30.7681 499.344 30.7681C499.792 30.7681 500.08 31.0241 500.208 31.5361C500.4 32.0481 500.496 32.5281 500.496 32.9761C500.496 33.3601 500.304 34.0321 499.92 34.9921C499.6 35.8881 499.44 36.4961 499.44 36.8161C499.44 37.3281 499.696 37.8401 500.208 38.3521C500.784 38.8641 501.584 39.4721 502.608 40.1761C504.72 41.7121 506.352 43.1841 507.504 44.5921C508.656 46.0001 509.232 47.8241 509.232 50.0641C509.232 51.4081 509.008 52.7521 508.56 54.0961C508.112 55.4401 507.44 57.2001 506.544 59.3761C506.032 60.6561 505.552 61.9361 505.104 63.2161C504.656 64.4321 504.432 65.4561 504.432 66.2881C504.432 68.1441 505.392 69.0721 507.312 69.0721C509.232 69.0721 511.28 68.3041 513.456 66.7681C515.696 65.2321 517.744 63.3441 519.6 61.1041C521.456 58.8001 522.338 56.0161 523.17 54.0961C524.642 49.6801 526.434 45.8081 528.546 42.4801C530.722 39.1521 532.834 37.4881 534.882 37.4881C535.458 37.4881 535.938 37.6801 536.322 38.0641C536.77 38.4481 536.994 38.9601 536.994 39.6001C536.994 40.4961 535.97 42.6401 533.922 46.0321C531.81 49.5521 530.114 52.7201 528.834 55.5361C527.618 58.2881 527.01 60.9121 527.01 63.4081C527.01 65.6481 527.362 67.1841 528.066 68.0161C528.834 68.7841 528.436 69.2983 531.714 69.1681C534.992 69.0379 534.892 68.2163 536.672 67.1083C539.261 65.4968 540.269 63.9417 542.139 61.5337C544.034 59.0955 545.206 58.1601 546.23 54.7681C547.254 51.3761 547.798 48.3681 547.862 45.7441C548.31 45.2321 548.95 44.7841 549.782 44.4001C550.614 43.9521 551.446 43.7281 552.278 43.7281C554.006 43.7281 554.87 44.5601 554.87 46.2241C554.87 47.1841 554.582 48.8801 554.006 51.3121C553.43 53.6801 552.694 56.2081 551.798 58.8961C554.87 54.1601 558.134 50.1601 561.59 46.8961C565.046 43.6321 568.438 42.0001 571.766 42.0001C574.134 42.0001 575.894 42.8641 577.046 44.5921C578.262 46.2561 578.87 48.2721 578.87 50.6401C578.87 52.0481 578.678 53.3921 578.294 54.6721C577.974 55.9521 577.462 57.4241 576.758 59.0881C576.182 60.4961 575.734 61.7121 575.414 62.7361C575.094 63.7601 574.934 64.7841 574.934 65.8081C574.934 68.2401 575.894 69.4561 577.814 69.4561C579.99 69.4561 582.23 68.0161 584.534 65.1361C586.902 62.2561 588.795 58.7393 590.907 54.5153L591.767 51.0053L593.471 45.1307L595.461 39.6961C599.301 29.7761 603.589 20.9441 608.325 13.2001C613.125 5.39209 616.645 1.48811 618.885 1.48811C619.717 1.48811 620.421 2.0961 620.997 3.3121C621.573 4.5281 621.861 6.0001 621.861 7.7281C621.861 10.6721 620.997 14.0321 619.269 17.8081C617.605 21.5841 615.269 25.2321 612.261 28.7521C609.253 32.2721 605.925 35.1201 602.277 37.2961C600.229 42.2881 598.661 47.2481 597.573 52.1761C596.485 57.1041 595.941 61.2961 595.941 64.7521C598.757 57.6481 601.989 51.4081 605.637 46.0321C609.285 40.5921 613.221 37.8721 617.445 37.8721C619.813 37.8721 621.829 38.7041 623.493 40.3681C625.157 42.0321 625.989 44.0481 625.989 46.4161C625.989 48.9121 625.157 51.0241 623.493 52.7521C621.893 54.4161 620.005 55.6641 617.829 56.4961C615.717 57.2641 613.893 57.6481 612.357 57.6481C612.677 60.0161 613.445 62.6721 614.661 65.6161C615.941 68.5601 617.669 70.0321 619.845 70.0321C624.645 70.0321 629.381 64.8161 634.053 54.3841L635.013 55.3441C634.117 58.4801 632.741 61.4561 630.885 64.2721C629.029 67.0881 626.949 69.3601 624.645 71.0881C622.341 72.8161 620.101 73.6801 617.925 73.6801C615.685 73.6801 613.829 72.7201 612.357 70.8001C610.885 68.8801 609.797 66.5761 609.093 63.8881C608.453 61.2001 608.133 58.7041 608.133 56.4001C609.349 56.4001 610.917 56.0481 612.837 55.3441C614.821 54.6401 616.581 53.6161 618.117 52.2721C619.653 50.8641 620.421 49.1681 620.421 47.1841C620.421 45.9041 619.941 44.8801 618.981 44.1121C618.021 43.2801 616.901 42.8641 615.621 42.8641C611.525 42.8641 608.005 45.4881 605.061 50.7361C602.181 55.9841 599.653 61.9041 597.477 68.4961L596.421 71.2801C596.101 71.8561 595.621 72.2721 594.981 72.5281C594.405 72.8481 593.797 73.0081 593.157 73.0081C591.685 73.0081 590.757 72.2401 590.373 70.7041C589.989 69.1681 589.797 66.9281 589.797 63.9841C589.757 63.894 589.923 61.6266 590.01 60.5041L587.903 64.1161C587.903 64.1161 585.44 67.999 583.082 69.6052C581.736 70.5219 580.898 70.976 579.336 71.4381C577.962 71.8448 577.878 71.9521 575.702 71.9521C573.526 71.9521 571.862 71.3761 570.71 70.2241C569.558 69.1361 568.982 67.6641 568.982 65.8081C568.982 64.9761 569.11 64.0161 569.366 62.9281C569.686 61.7761 570.006 60.6561 570.326 59.5681C570.71 58.4161 571.03 57.2001 571.286 55.9201C571.606 54.6401 571.766 53.4881 571.766 52.4641C571.766 49.3281 570.486 47.7601 567.926 47.7601C565.494 47.7601 562.934 49.0401 560.246 51.6001C557.622 54.1601 555.254 57.0081 553.142 60.1441C551.094 63.2801 548.758 67.0561 546.134 71.4721C545.046 71.4721 544.054 71.2801 543.158 70.8961C542.262 70.5761 541.558 70.0641 541.046 69.3601C541.046 69.0401 541.462 67.8881 542.294 65.9041L542.996 64.1327L539.43 67.9601C535.974 70.9681 532.29 72.5281 528.45 72.5281C526.082 72.5281 524.258 71.7601 522.978 70.2241C521.698 68.7521 521.058 66.8321 521.058 64.4641L521.166 62.4311C517.838 66.2631 520.016 64.0481 516.24 67.4401C512.464 70.8321 508.656 72.5281 504.816 72.5281C502.64 72.5281 500.912 71.9521 499.632 70.8001C498.416 69.7121 497.808 68.1761 497.808 66.1921C497.808 64.9761 498.032 63.6961 498.48 62.3521C498.928 60.9441 499.6 59.1841 500.496 57.0721C500.624 56.7521 500.944 55.9201 501.456 54.5761C502.032 53.2321 502.448 52.0481 502.704 51.0241C502.96 49.9361 503.088 49.0081 503.088 48.2401C503.088 46.7041 502.704 45.4881 501.936 44.5921C501.168 43.6321 500.336 42.8641 499.44 42.2881C498.544 41.6481 497.968 41.2321 497.712 41.0401C496.176 45.9041 494.672 50.0641 493.2 53.5201C491.728 56.9121 489.648 59.9521 486.96 62.6401C484.336 65.3281 481.104 66.6721 477.264 66.6721C476.368 66.6721 475.44 66.5761 474.48 66.3841C472.56 69.5841 470.32 72.1441 467.76 74.0641C465.2 76.0481 462.352 77.0401 459.216 77.0401C455.952 77.0401 453.488 75.9521 451.824 73.7761C450.16 71.6641 449.328 68.7201 449.328 64.9441L449.323 64.3895C449.323 64.3895 448.257 66.7034 447.276 67.9888C446.537 68.9575 446.123 69.5416 445.142 70.2647C444.037 71.0789 443.268 71.354 441.948 71.7291C439.929 72.303 438.708 72.2236 436.577 71.9521C434.447 71.6806 432.737 71.3761 431.585 70.2241C430.433 69.1361 429.857 67.6641 429.857 65.8081C429.857 64.9761 429.985 64.0161 430.241 62.9281C430.561 61.7761 430.881 60.6561 431.201 59.5681C431.585 58.4161 431.905 57.2001 432.161 55.9201C432.481 54.6401 432.641 53.4881 432.641 52.4641C432.641 49.3281 431.361 47.7601 428.801 47.7601C426.369 47.7601 423.809 49.0401 421.121 51.6001C418.497 54.1601 416.129 57.0081 414.017 60.1441C411.969 63.2801 409.633 67.0561 407.009 71.4721C405.921 71.4721 404.929 71.2801 404.033 70.8961C403.137 70.5761 402.433 70.0641 401.921 69.3601C401.921 69.0401 402.337 67.8881 403.169 65.9041L404.469 62.5061L402.647 64.7916L397.985 69.0721C393.441 72.5281 388.769 74.2561 383.969 74.2561ZM387.713 54.0961C384.769 55.8241 381.953 57.1681 379.265 58.1281C380.097 55.1201 381.473 52.0801 383.393 49.0081C385.377 45.9361 387.521 43.4081 389.825 41.4241C392.193 39.4401 394.369 38.4481 396.353 38.4481C397.121 38.4481 397.633 38.6401 397.889 39.0241C398.209 39.3441 398.368 39.8881 398.368 40.6561C398.368 43.2161 397.313 45.6801 395.201 48.0481C393.153 50.3521 390.657 52.3681 387.713 54.0961ZM469.584 30.9601C466.896 35.0561 464.176 38.1921 461.424 40.3681C462.768 35.8241 464.656 31.1521 467.088 26.3521C469.52 21.4881 471.856 17.4241 474.096 14.1601C476.4 10.8961 477.904 9.26411 478.608 9.26411C478.864 9.26411 478.992 9.52012 478.992 10.0321C478.992 11.6961 478.096 14.5761 476.304 18.6721C474.576 22.7041 472.336 26.8001 469.584 30.9601ZM474.768 53.7121C474.768 57.0401 474.032 60.2721 472.56 63.4081C471.024 62.3841 469.872 60.9441 469.104 59.0881C468.336 57.2321 467.952 55.3441 467.952 53.4241C467.952 51.5041 468.304 49.8721 469.008 48.5281C469.776 47.1841 470.64 46.5121 471.6 46.5121C472.496 46.5121 473.232 47.1841 473.808 48.5281C474.448 49.8081 474.768 51.5361 474.768 53.7121ZM611.493 25.5841C609.253 28.5921 606.725 31.2161 603.909 33.4561C606.661 27.1201 609.509 21.5201 612.453 16.6561C615.397 11.7281 617.349 9.26411 618.309 9.26411C618.501 9.26411 618.597 9.5521 618.597 10.1281C618.597 11.7921 617.957 14.0321 616.677 16.8481C615.461 19.6641 613.733 22.5761 611.493 25.5841Z" fill="#0C0A0A"/>
</svg>
