<svg width="635" height="79" viewBox="0 0 635 79" fill="none" xmlns="http://www.w3.org/2000/svg">
<path d="M346.595 76.346C347.747 77.562 349.699 78.17 352.451 78.17C352.387 77.722 352.355 77.018 352.355 76.058C352.355 73.498 352.643 70.906 353.219 68.282C353.795 65.594 354.819 61.562 356.291 56.186L357.155 53.018C361.955 35.61 366.979 20.346 372.227 7.226L379.043 7.32201C382.691 7.32201 385.827 7.03401 388.451 6.45801C391.075 5.81801 393.411 4.602 395.459 2.81C393.667 2.81 391.683 2.71399 389.507 2.52199C387.331 2.32999 385.187 2.10599 383.075 1.84999C375.907 1.08199 369.731 0.697998 364.547 0.697998C357.379 0.697998 351.747 1.36999 347.651 2.71399C343.555 3.99399 341.379 6.13801 341.123 9.14601C345.219 8.44201 348.995 7.994 352.451 7.802C355.907 7.546 361.091 7.354 368.003 7.226C364.931 13.818 361.571 21.882 357.923 31.418C354.275 40.954 351.107 49.594 348.419 57.338C347.267 60.602 346.371 63.354 345.731 65.594C345.155 67.77 344.867 69.69 344.867 71.354C344.867 73.53 345.443 75.194 346.595 76.346Z" fill="#0C0A0A"/>
<path d="M10.3911 78.074C3.47913 78.074 0.0231323 73.914 0.0231323 65.594C0.0231323 61.562 0.727132 57.882 2.13513 54.554C3.47913 51.162 5.20713 49.466 7.31913 49.466C8.08713 49.466 8.98313 49.722 10.0071 50.234C7.70313 56.058 6.55113 61.178 6.55113 65.594C6.55113 68.474 7.06313 70.714 8.08713 72.314C9.11113 73.914 10.6151 74.714 12.5991 74.714C14.3271 74.714 15.8311 73.978 17.1111 72.506C18.3911 71.034 19.7351 68.41 21.1431 64.634C23.3831 58.426 25.9431 49.178 28.8231 36.89C31.7671 24.602 34.0391 14.234 35.6391 5.786C30.9031 5.85 27.2231 6.01001 24.5991 6.26601C22.0391 6.52201 19.2551 7.00201 16.2471 7.70601C16.9511 3.16201 22.1671 0.889999 31.8951 0.889999C35.2231 0.889999 38.7751 1.11399 42.5511 1.562C46.3271 2.00999 49.4631 2.45799 51.9591 2.90599C51.3191 3.99399 50.2631 4.73 48.7911 5.114C47.3831 5.498 45.9751 5.69 44.5671 5.69L37.7511 5.786C38.3911 6.298 38.8711 7.002 39.1911 7.89799C39.5751 8.73 39.7671 9.52999 39.7671 10.298C39.7671 11.962 39.0951 16.218 37.7511 23.066C36.4711 29.85 34.7751 37.082 32.6631 44.762C30.6151 52.442 28.4391 58.842 26.1351 63.962C23.7671 69.338 21.3351 73.018 18.8391 75.002C16.3431 77.05 13.5271 78.074 10.3911 78.074Z" fill="#0C0A0A"/>
<path fill-rule="evenodd" clip-rule="evenodd" d="M38.984 72.6077C41.032 74.7197 43.944 75.7757 47.72 75.7757C52.52 75.7757 57.192 74.0477 61.736 70.5917C66.28 67.1357 70.2807 60.9917 70.2807 60.9917C70.2807 60.9917 72.7128 56.5117 74.3128 53.1197C75.9128 49.6637 77.4168 46.1437 78.8248 42.5597C79.1448 42.7517 79.7528 43.1677 80.6488 43.8077C81.5448 44.3837 82.3448 45.1517 83.0488 46.1117C83.8168 47.0077 84.2008 48.2557 84.2008 49.8557C84.2008 50.9437 83.9768 52.1277 83.5288 53.4077C83.1448 54.6237 82.5368 56.2877 81.7048 58.3997C79.8488 62.4957 78.9208 65.6317 78.9208 67.8077C78.9208 69.6637 79.5288 71.1677 80.7448 72.3197C82.0248 73.4717 83.7528 74.0477 85.9288 74.0477C89.7688 74.0477 93.5768 72.3517 97.3528 68.9597C97.4714 68.9152 100.086 66.7908 101.378 65.7341C101.378 65.7341 101.487 67.5452 101.857 68.6304C101.926 68.832 101.982 69.0077 102.033 69.165C102.392 70.2739 102.454 70.4635 104.247 72.3132C106.295 74.4252 109.207 75.4812 112.983 75.4812C117.783 75.4812 122.455 73.7532 126.999 70.2972C131.543 66.8412 133.967 63.1858 133.967 63.1858L132.59 67.6118C132.59 67.6118 131.246 71.9318 131.246 72.1238C131.246 72.5718 131.886 73.0198 133.166 73.4678C134.382 73.9158 135.47 74.1398 136.43 74.1398C137.966 69.9158 140.11 65.6278 142.862 61.2758C145.614 56.8598 148.398 53.2118 151.214 50.3318C154.094 47.4518 156.43 46.0118 158.222 46.0118C159.822 46.0118 160.622 47.2278 160.622 49.6598C160.622 51.5798 160.206 53.9158 159.374 56.6678C158.606 59.3558 157.55 62.6838 156.206 66.6518C155.118 69.5958 154.574 71.2918 154.574 71.7398C154.574 72.3158 155.118 72.7638 156.206 73.0838C157.358 73.4678 158.446 73.6598 159.47 73.6598L160.334 71.8358C161.934 68.5078 163.182 66.1398 164.078 64.7318C167.598 59.3558 170.19 55.6438 171.854 53.5958C173.582 51.4838 175.182 50.4278 176.654 50.4278C177.422 50.4278 178.062 50.7158 178.574 51.2918C179.15 51.8678 179.438 52.7318 179.438 53.8838C179.438 54.6518 179.278 55.5798 178.958 56.6678C178.702 57.7558 178.414 58.8438 178.094 59.9318C177.07 63.2598 176.558 65.7878 176.558 67.5158C176.558 69.5638 177.102 71.2278 178.19 72.5078C179.278 73.8518 180.878 74.5238 182.99 74.5238C186.51 74.5238 189.71 72.8598 192.59 69.5318L196.424 63.6665L196.247 65.9837C196.247 68.3517 196.887 70.2717 198.167 71.7437C199.447 73.2797 201.271 74.0477 203.639 74.0477C207.479 74.0477 211.127 72.5437 214.583 69.5357C215.626 68.6443 217.484 66.5491 217.484 66.5491L217.387 68.0957C217.387 70.6557 218.059 72.6077 219.403 73.9517C220.683 75.3597 222.379 76.0637 224.491 76.0637C226.731 76.0637 228.971 75.1677 231.211 73.3757C233.515 71.5837 236.107 68.7677 238.987 64.9277C238.795 65.9517 238.699 66.8797 238.699 67.7117C238.699 69.5677 239.275 71.1357 240.427 72.4157C241.643 73.7597 243.371 74.4317 245.611 74.4317C247.851 74.4317 250.187 73.6957 252.619 72.2237C255.051 70.7517 257.323 68.7037 259.435 66.0797L262.493 61.446L262.272 65.2157C262.272 67.9037 262.624 70.2397 263.328 72.2237C264.096 74.2077 265.056 75.1997 266.208 75.1997C267.296 75.1997 268.288 74.3677 269.184 72.7037C270.08 71.0397 271.296 68.3517 272.832 64.6397C274.88 59.5837 276.768 55.6797 278.496 52.9277C280.288 50.1117 282.368 48.7037 284.736 48.7037C285.824 48.7037 286.688 49.0877 287.328 49.8557C288.032 50.5597 288.384 51.7117 288.384 53.3117C288.384 54.9757 287.872 57.5357 286.848 60.9917C285.888 64.1277 285.408 66.3997 285.408 67.8077C285.408 69.5997 285.984 71.0397 287.136 72.1277C288.288 73.2797 289.92 73.8557 292.032 73.8557C295.616 73.8557 299.04 72.2877 302.304 69.1517C305.632 66.0157 308.352 62.0157 310.464 57.1517L309.216 55.9997C307.296 60.1597 304.864 63.7757 301.92 66.8477C298.976 69.8557 296.416 71.3597 294.24 71.3597C293.344 71.3597 292.64 71.0717 292.128 70.4957C291.616 69.8557 291.36 68.9277 291.36 67.7117C291.36 66.7517 291.52 65.7597 291.84 64.7357C292.16 63.7117 292.64 62.3357 293.28 60.6077C294.048 58.5597 294.592 56.8957 294.912 55.6157C295.296 54.3357 295.488 52.9917 295.488 51.5837C295.488 49.2157 294.88 47.1997 293.664 45.5357C292.448 43.8077 290.624 42.9437 288.192 42.9437C284.224 42.9437 280.608 45.2477 277.344 49.8557C274.144 54.3997 271.264 60.3837 268.704 67.8077C268.576 66.6557 268.512 65.5677 268.512 64.5437C268.512 61.7277 268.8 58.5597 269.376 55.0397C270.016 51.4557 270.912 48.3197 272.064 45.6317C275.648 43.4557 279.136 40.0637 282.528 35.4557C285.984 30.8477 288.768 26.0477 290.88 21.0557C293.056 16.0637 294.144 12.0638 294.144 9.05576C294.144 7.51976 293.856 6.14378 293.28 4.92778C292.768 3.64778 292 3.00777 290.976 3.00777C288.288 3.00777 284.64 6.91174 280.032 14.7197C275.424 22.5277 271.296 31.4237 267.648 41.4077L263.269 56.2515C263.269 56.2515 258.123 64.5437 255.307 67.2317C252.491 69.8557 250.155 71.1677 248.299 71.1677C247.211 71.1677 246.379 70.7517 245.803 69.9197C245.291 69.0237 245.035 68.0317 245.035 66.9437C245.035 65.7277 245.355 64.4157 245.995 63.0077C246.635 61.5357 247.499 59.8717 248.587 58.0157C248.715 57.8237 249.067 57.1837 249.643 56.0957C250.283 54.9437 250.603 54.1117 250.603 53.5997C250.603 52.9597 250.155 52.4477 249.259 52.0637C248.427 51.6157 247.595 51.3277 246.763 51.1997C242.795 57.0237 239.083 61.9837 235.627 66.0797C232.171 70.1117 229.163 72.1277 226.603 72.1277C224.875 72.1277 224.011 70.8797 224.011 68.3837C224.011 65.2477 225.035 61.5037 227.083 57.1517C229.195 52.7997 231.787 49.0557 234.859 45.9197C237.995 42.7837 240.971 41.2157 243.787 41.2157C245.387 41.2157 246.571 41.7278 247.339 42.7518C248.107 43.7118 248.491 44.9917 248.491 46.5917C248.491 47.6797 248.331 48.7997 248.011 49.9517C249.483 49.9517 250.635 49.6317 251.467 48.9917C252.299 48.3517 252.715 47.2957 252.715 45.8237C252.715 43.7117 251.883 41.9837 250.219 40.6397C248.555 39.2957 246.475 38.6237 243.979 38.6237C240.011 38.6237 235.947 40.2558 231.787 43.5198C227.627 46.7838 224.171 50.7517 221.419 55.4237C216.555 65.2157 211.895 70.6877 206.903 70.6877C205.239 70.6877 204.023 70.3037 203.255 69.5357C202.551 68.7037 202.199 67.1677 202.199 64.9277C202.199 62.4317 202.807 59.8077 204.023 57.0557C205.303 54.2397 206.999 51.0717 209.111 47.5517C211.159 44.1597 212.183 42.0157 212.183 41.1197C212.183 40.4797 211.959 39.9677 211.511 39.5837C211.127 39.1997 210.647 39.0077 210.071 39.0077C208.023 39.0077 205.911 40.6717 203.735 43.9997C201.623 47.3277 199.831 51.1997 198.359 55.6157C196.375 59.9037 194.414 63.8998 192.302 66.8438C190.19 69.7238 187.95 71.1638 185.582 71.1638C183.662 71.1638 182.702 70.0758 182.702 67.8998C182.702 66.5558 183.246 64.1878 184.334 60.7958C184.974 58.8118 185.454 57.1478 185.774 55.8038C186.094 54.3958 186.254 53.0838 186.254 51.8678C186.254 50.0758 185.806 48.6038 184.91 47.4518C184.078 46.2998 182.702 45.7238 180.782 45.7238C177.838 45.7238 175.054 47.0998 172.43 49.8518C169.806 52.5398 167.278 56.0918 164.846 60.5078C165.55 58.7798 166.222 56.6358 166.862 54.0758C167.502 51.5158 167.822 49.1478 167.822 46.9718C167.822 44.7958 167.406 43.0358 166.574 41.6918C165.806 40.3478 164.494 39.6758 162.638 39.6758C159.502 39.6758 156.11 41.4678 152.462 45.0518C148.878 48.6358 145.518 52.9238 142.382 57.9158C144.046 52.3478 144.878 48.6998 144.878 46.9718C144.878 45.3078 144.014 44.4758 142.286 44.4758C141.454 44.4758 140.622 44.6998 139.79 45.1478C138.958 45.5318 138.318 45.9798 137.87 46.4918C137.806 49.1158 137.182 51.9253 136.158 55.5093C133.662 60.3093 130.775 64.5372 126.807 67.8012C122.839 71.0652 118.903 72.6972 114.999 72.6972C112.247 72.6972 110.295 71.9292 109.143 70.3932C107.991 68.8572 107.415 66.9372 107.415 64.6332C107.415 63.4172 107.543 62.2652 107.799 61.1772C111.511 60.7932 115.223 59.7372 118.935 58.0092C122.647 56.2812 125.687 54.0732 128.055 51.3852C130.423 48.6332 131.607 45.6892 131.607 42.5532C131.607 38.6492 129.623 36.6972 125.655 36.6972C122.007 36.6972 118.263 38.2012 114.423 41.2092C110.647 44.1532 107.511 47.8012 105.015 52.1532L102.176 58.368L101.446 61.652L100.713 62.6237C98.8568 64.8637 96.8088 66.7517 94.5688 68.2877C92.3928 69.8237 90.3448 70.5917 88.4248 70.5917C86.5048 70.5917 85.5448 69.6317 85.5448 67.7117C85.5448 66.3677 86.2488 64.1597 87.6568 61.0877C88.5528 58.8477 89.2248 57.0557 89.6728 55.7117C90.1208 54.3037 90.3448 52.8957 90.3448 51.4877C90.3448 49.3117 89.7688 47.5517 88.6168 46.2077C87.5288 44.7997 85.9928 43.3918 84.0088 41.9837C82.7928 41.1517 81.8968 40.4797 81.3208 39.9677C80.8088 39.3917 80.5528 38.7837 80.5528 38.1437C80.6168 37.8237 80.8088 37.2157 81.1288 36.3197C81.4488 35.4237 81.6088 34.8478 81.6088 34.5918C81.6088 33.0558 81.1608 32.2877 80.2648 32.2877C79.8808 32.2877 79.3368 32.5757 78.6328 33.1517C77.9928 33.7277 77.4168 34.5277 76.9048 35.5517C76.4568 36.5757 76.2328 37.6637 76.2328 38.8158C76.2328 39.7118 76.5528 40.4797 77.1928 41.1197C75.0808 47.3277 68.9933 59.2432 68.9933 59.2432C68.9933 59.2432 65.512 64.8317 61.544 68.0957C57.576 71.3597 53.64 72.9917 49.736 72.9917C46.984 72.9917 45.032 72.2237 43.88 70.6877C42.728 69.1517 42.152 67.2317 42.152 64.9277C42.152 63.7117 42.28 62.5597 42.536 61.4717C46.248 61.0877 49.96 60.0317 53.672 58.3037C57.384 56.5757 60.424 54.3677 62.792 51.6797C65.16 48.9277 66.344 45.9837 66.344 42.8477C66.344 38.9437 64.36 36.9917 60.392 36.9917C56.744 36.9917 53 38.4957 49.16 41.5037C45.384 44.4477 42.248 48.0957 39.752 52.4477C37.256 56.7997 36.008 60.8637 36.008 64.6397C36.008 67.9037 37 70.5597 38.984 72.6077ZM45.7047 52.5039C44.6273 54.427 43.3215 57.6206 43.3215 57.6206C43.3215 57.6206 45.56 57.2704 46.9663 56.9195C49.8572 56.1983 51.9895 55.541 54.1157 54.256C56.2418 52.971 60.0179 50.5995 60.6249 49.8081C61.2319 49.0166 62.3637 47.2892 63.1575 45.5647C63.1575 45.5647 63.649 43.0392 62.807 41.8498C62.1397 40.9073 61.4366 40.3756 60.2837 40.3078C59.0922 40.2377 56.8714 41.2035 55.0026 42.2579C52.7996 43.5009 51.7672 44.5632 50.0647 46.315L49.8401 46.546C47.9526 48.4861 47.16 49.9027 45.8852 52.1812L45.7047 52.5039ZM111.683 50.5721C110.765 52.2753 109.289 56.7774 109.289 56.7774C109.289 56.7774 111.34 56.9362 112.364 56.6474C114.054 56.1709 115.21 55.6024 116.869 54.7414C118.354 53.971 120.304 52.3943 120.304 52.3943C120.304 52.3943 121.856 50.8205 122.757 49.7308C123.055 49.3709 123.337 49.0565 123.602 48.7603C124.407 47.8621 125.061 47.1312 125.561 45.8057C126.221 44.0549 126.542 41.4596 126.052 41.0396C124.855 40.0149 121.986 41.0512 119.743 42.161C118.086 42.9812 116.935 43.9513 115.532 45.1334L115.44 45.2111C114.892 45.6724 114.674 45.9571 114.395 46.3202C114.236 46.5277 114.057 46.7609 113.786 47.0674C113.003 47.9512 112.642 48.6762 112.201 49.5622C112.045 49.8742 111.88 50.2062 111.683 50.5721ZM272.064 41.6864C272.064 41.6864 274.314 33.8846 275.487 31.156C276.127 29.6671 276.65 28.6455 277.245 27.4846C277.544 26.9004 277.861 26.2808 278.22 25.5487C278.632 24.7107 278.98 23.9856 279.308 23.3036C280.02 21.8212 280.634 20.5423 281.585 18.7497C281.802 18.3397 281.997 17.9664 282.181 17.615C282.865 16.3058 283.389 15.3018 284.318 13.8435C285.613 11.8119 286.387 10.6889 287.963 8.86691C288.723 7.98806 289.996 6.69409 289.996 6.69409L290.487 8.09596C290.487 8.09596 290.868 9.38927 290.909 10.2427C290.957 11.2299 290.606 12.7552 290.606 12.7552C290.606 12.7552 290.317 14.2664 290.086 15.2244C289.846 16.2235 289.739 16.795 289.394 17.763C288.937 19.0475 288.53 19.7093 287.898 20.9179C287.067 22.5081 286.478 23.3311 285.566 24.8764C284.356 26.9278 284.084 27.7627 282.462 30.1263C279.408 34.5766 272.408 42.373 272.064 41.6864Z" fill="#0C0A0A"/>
<path d="M539.775 28.346C538.623 28.346 537.663 28.09 536.895 27.578C536.191 27.002 535.839 26.202 535.839 25.178C535.839 23.898 536.607 22.746 538.143 21.722C539.679 20.698 541.247 20.186 542.847 20.186C544.959 20.186 546.015 21.178 546.015 23.162C546.015 24.378 545.343 25.562 543.999 26.714C542.719 27.802 541.311 28.346 539.775 28.346Z" fill="#0C0A0A"/>
<path d="M215.86 23.243C216.049 23.06 216.251 22.8643 216.451 22.6377C217.433 21.5222 218.983 21.0754 220.433 21.4034C221.38 21.6178 222.153 21.9142 222.469 22.8329C222.817 23.8458 222.09 24.547 221.323 25.2862C221.228 25.3774 221.133 25.4691 221.039 25.562C219.995 26.5971 219.003 27.3789 217.574 27.0349C217.376 26.9873 217.182 26.9538 216.997 26.9217C216.353 26.8102 215.8 26.7146 215.458 26.096C215.425 26.0372 215.389 25.9751 215.352 25.9105C215.161 25.5792 214.932 25.1834 214.928 24.8384C214.921 24.1518 215.341 23.7454 215.86 23.243Z" fill="#0C0A0A"/>
<path fill-rule="evenodd" clip-rule="evenodd" d="M375.037 70.874C377.085 72.986 379.997 74.042 383.773 74.042C388.573 74.042 393.245 72.314 397.789 68.858L402.452 64.5775L404.273 62.292L402.974 65.69C402.142 67.674 401.726 68.826 401.726 69.146C402.238 69.85 402.942 70.362 403.838 70.682C404.734 71.066 405.726 71.258 406.814 71.258C409.438 66.842 411.774 63.066 413.822 59.93C415.934 56.794 418.302 53.946 420.926 51.386C423.614 48.826 426.174 47.546 428.606 47.546C431.166 47.546 432.446 49.114 432.446 52.25C432.446 53.274 432.286 54.426 431.966 55.706C431.71 56.986 431.39 58.202 431.006 59.354C430.686 60.442 430.366 61.562 430.046 62.714C429.79 63.802 429.662 64.762 429.662 65.594C429.662 67.45 430.238 68.922 431.39 70.01C432.542 71.162 434.251 71.4665 436.382 71.738C438.513 72.0095 439.734 72.0889 441.753 71.515C443.073 71.1399 443.842 70.8648 444.947 70.0506C445.864 69.3745 446.286 68.82 446.941 67.959L447.081 67.7746C448.062 66.4893 449.128 64.1754 449.128 64.1754L449.133 64.73C449.133 68.506 449.965 71.45 451.629 73.562C453.293 75.738 455.757 76.826 459.021 76.826C462.157 76.826 465.005 75.834 467.565 73.85C470.125 71.93 472.365 69.37 474.285 66.17C475.245 66.362 476.173 66.458 477.069 66.458C480.909 66.458 484.141 65.114 486.765 62.426C489.453 59.738 491.533 56.698 493.005 53.306C494.477 49.85 495.981 45.69 497.517 40.826C497.773 41.018 498.349 41.434 499.245 42.074C500.141 42.65 500.973 43.418 501.741 44.378C502.509 45.274 502.893 46.49 502.893 48.026C502.893 48.794 502.765 49.722 502.509 50.81C502.253 51.834 501.837 53.018 501.261 54.362C500.749 55.706 500.429 56.538 500.301 56.858C499.405 58.97 498.733 60.73 498.285 62.138C497.837 63.482 497.613 64.762 497.613 65.978C497.613 67.962 498.221 69.498 499.437 70.586C500.717 71.738 502.445 72.314 504.621 72.314C508.461 72.314 512.269 70.618 516.045 67.226C517.007 66.3618 517.583 65.8615 517.961 65.5325L517.963 65.5307C518.326 65.2152 518.508 65.0575 518.676 64.8865C518.844 64.7156 518.999 64.5314 519.308 64.1633C519.631 63.7793 520.121 63.1952 520.971 62.217L520.863 64.25C520.863 66.618 521.503 68.538 522.783 70.01C524.063 71.546 525.887 72.314 528.255 72.314C532.095 72.314 535.779 70.754 539.235 67.746L542.8 63.9186L542.099 65.69C541.267 67.674 540.851 68.826 540.851 69.146C541.363 69.85 542.067 70.362 542.963 70.682C543.859 71.066 544.851 71.258 545.939 71.258C548.563 66.842 550.899 63.066 552.947 59.93C555.059 56.794 557.427 53.946 560.051 51.386C562.739 48.826 565.299 47.546 567.731 47.546C570.291 47.546 571.571 49.114 571.571 52.25C571.571 53.274 571.411 54.426 571.091 55.706C570.835 56.986 570.515 58.202 570.131 59.354C569.811 60.442 569.491 61.562 569.171 62.714C568.915 63.802 568.787 64.762 568.787 65.594C568.787 67.45 569.363 68.922 570.515 70.01C571.667 71.162 573.331 71.738 575.507 71.738C577.443 71.738 577.723 71.6531 578.729 71.348C578.854 71.3101 578.99 71.2689 579.141 71.224C580.703 70.7619 581.541 70.3078 582.887 69.3911C585.245 67.7849 587.708 63.902 587.708 63.902L589.815 60.29C589.727 61.4125 589.562 63.6799 589.602 63.77C589.602 66.714 589.794 68.954 590.178 70.49C590.562 72.026 591.49 72.794 592.962 72.794C593.602 72.794 594.21 72.634 594.786 72.314C595.426 72.058 595.906 71.642 596.226 71.066L597.282 68.282C599.458 61.69 601.986 55.77 604.866 50.522C607.81 45.274 611.33 42.65 615.426 42.65C616.706 42.65 617.826 43.066 618.786 43.898C619.746 44.666 620.226 45.69 620.226 46.97C620.226 48.954 619.458 50.65 617.922 52.058C616.386 53.402 614.626 54.426 612.642 55.13C610.722 55.834 609.154 56.186 607.938 56.186C607.938 58.49 608.258 60.986 608.898 63.674C609.602 66.362 610.69 68.666 612.162 70.586C613.634 72.506 615.49 73.466 617.73 73.466C619.906 73.466 622.146 72.602 624.45 70.874C626.754 69.146 628.834 66.874 630.69 64.058C632.546 61.242 633.922 58.266 634.818 55.13L633.858 54.17C629.186 64.602 624.45 69.818 619.65 69.818C617.474 69.818 615.746 68.346 614.466 65.402C613.25 62.458 612.482 59.802 612.162 57.434C613.698 57.434 615.522 57.05 617.634 56.282C619.81 55.45 621.698 54.202 623.298 52.538C624.962 50.81 625.794 48.698 625.794 46.202C625.794 43.834 624.962 41.818 623.298 40.154C621.634 38.49 619.618 37.658 617.25 37.658C613.026 37.658 609.09 40.378 605.442 45.818C601.794 51.194 598.562 57.434 595.746 64.538C595.746 61.082 596.29 56.89 597.378 51.962C598.466 47.034 600.034 42.074 602.082 37.082C605.73 34.906 609.058 32.058 612.066 28.538C615.074 25.018 617.41 21.37 619.074 17.594C620.802 13.818 621.666 10.458 621.666 7.51399C621.666 5.78599 621.378 4.31399 620.802 3.09799C620.226 1.88199 619.522 1.274 618.69 1.274C616.45 1.274 612.93 5.17797 608.13 12.986C603.394 20.73 599.106 29.562 595.266 39.482L593.276 44.9165L591.572 50.7912L590.712 54.3012C588.6 58.5252 586.707 62.042 584.339 64.922C582.035 67.802 579.795 69.242 577.619 69.242C575.699 69.242 574.739 68.026 574.739 65.594C574.739 64.57 574.899 63.546 575.219 62.522C575.539 61.498 575.987 60.282 576.563 58.874C577.267 57.21 577.779 55.738 578.099 54.458C578.483 53.178 578.675 51.834 578.675 50.426C578.675 48.058 578.067 46.042 576.851 44.378C575.699 42.65 573.939 41.786 571.571 41.786C568.243 41.786 564.851 43.418 561.395 46.682C557.939 49.946 554.675 53.946 551.603 58.682C552.499 55.994 553.235 53.466 553.811 51.098C554.387 48.666 554.675 46.97 554.675 46.01C554.675 44.346 553.811 43.514 552.083 43.514C551.251 43.514 550.419 43.738 549.587 44.186C548.755 44.57 548.115 45.018 547.667 45.53C547.603 48.154 547.059 51.162 546.035 54.554C545.206 57.3016 544.279 58.4373 542.95 60.0655C542.638 60.4474 542.304 60.8564 541.944 61.3196C541.724 61.6026 541.516 61.8738 541.316 62.1347L541.305 62.1492C539.81 64.1007 538.756 65.4756 536.477 66.8942C536.006 67.1873 535.667 67.4604 535.362 67.706C534.513 68.3885 533.93 68.8583 531.519 68.954C528.861 69.0595 528.62 68.7416 528.215 68.2084C528.12 68.0838 528.016 67.9474 527.871 67.802C527.167 66.97 526.815 65.434 526.815 63.194C526.815 60.698 527.423 58.074 528.639 55.322C529.919 52.506 531.615 49.338 533.727 45.818C535.775 42.426 536.799 40.282 536.799 39.386C536.799 38.746 536.575 38.234 536.127 37.85C535.743 37.466 535.263 37.274 534.687 37.274C532.639 37.274 530.527 38.938 528.351 42.266C526.239 45.594 524.447 49.466 522.975 53.882C522.806 54.2718 522.635 54.6972 522.454 55.1469C521.745 56.9126 520.884 59.0537 519.405 60.89C517.549 63.13 515.501 65.018 513.261 66.554C511.085 68.09 509.037 68.858 507.117 68.858C505.197 68.858 504.237 67.93 504.237 66.074C504.237 65.242 504.461 64.218 504.909 63.002C505.357 61.722 505.837 60.442 506.349 59.162C507.245 56.986 507.917 55.226 508.365 53.882C508.813 52.538 509.037 51.194 509.037 49.85C509.037 47.61 508.461 45.786 507.309 44.378C506.157 42.97 504.525 41.498 502.413 39.962C501.389 39.258 500.589 38.65 500.013 38.138C499.501 37.626 499.245 37.114 499.245 36.602C499.245 36.282 499.405 35.674 499.725 34.778C500.109 33.818 500.301 33.146 500.301 32.762C500.301 32.314 500.205 31.834 500.013 31.322C499.885 30.81 499.597 30.554 499.149 30.554C498.637 30.554 498.029 30.874 497.325 31.514C496.685 32.09 496.109 32.89 495.597 33.914C495.149 34.874 494.925 35.866 494.925 36.89C494.925 37.914 495.245 38.746 495.885 39.386C494.349 43.994 492.845 47.962 491.373 51.29C489.965 54.618 488.045 57.626 485.613 60.314C483.245 63.002 480.493 64.346 477.357 64.346C476.461 64.346 475.789 64.282 475.341 64.154C477.453 59.93 478.509 55.674 478.509 51.386C478.509 48.57 477.965 46.394 476.877 44.858C475.789 43.322 474.317 42.554 472.461 42.554C470.221 42.554 468.301 43.514 466.701 45.434C465.165 47.29 464.397 49.722 464.397 52.73C464.397 55.29 465.005 57.722 466.221 60.026C467.437 62.266 469.165 63.962 471.405 65.114C470.189 67.482 468.589 69.402 466.605 70.874C464.621 72.41 462.701 73.178 460.845 73.178C457.325 73.178 455.565 70.17 455.565 64.154C455.565 60.634 456.109 56.762 457.197 52.538C458.349 48.314 459.341 45.434 460.173 43.898C463.757 41.722 467.245 38.33 470.637 33.722C474.029 29.114 476.781 24.314 478.893 19.322C481.005 14.33 482.061 10.33 482.061 7.32201C482.061 5.78601 481.773 4.41 481.197 3.194C480.685 1.914 479.949 1.274 478.989 1.274C476.429 1.274 472.717 5.24198 467.853 13.178C463.053 21.114 458.733 30.17 454.893 40.346L449.677 58.5358C447.666 62.5573 447.421 62.7929 445.515 64.6315L445.512 64.6345L445.214 64.922C442.971 67.0907 440.67 69.242 438.494 69.242C436.574 69.242 435.614 68.026 435.614 65.594C435.614 64.57 435.774 63.546 436.094 62.522C436.414 61.498 436.862 60.282 437.438 58.874C438.142 57.21 438.654 55.738 438.974 54.458C439.358 53.178 439.55 51.834 439.55 50.426C439.55 48.058 438.942 46.042 437.726 44.378C436.574 42.65 434.814 41.786 432.446 41.786C429.118 41.786 425.726 43.418 422.27 46.682C418.814 49.946 415.55 53.946 412.478 58.682C413.374 55.994 414.11 53.466 414.686 51.098C415.262 48.666 415.55 46.97 415.55 46.01C415.55 44.346 414.686 43.514 412.958 43.514C412.126 43.514 411.294 43.738 410.462 44.186C409.63 44.57 408.99 45.018 408.542 45.53C408.478 48.154 407.934 51.162 406.91 54.554C404.414 59.354 401.565 63.098 397.597 66.362C393.629 69.626 389.693 71.258 385.789 71.258C383.037 71.258 381.085 70.49 379.933 68.954C378.781 67.418 378.205 65.498 378.205 63.194C378.205 61.978 378.333 60.826 378.589 59.738C382.301 59.354 386.013 58.298 389.725 56.57C393.437 54.842 396.477 52.634 398.845 49.946C401.213 47.194 402.397 44.25 402.397 41.114C402.397 37.21 400.413 35.258 396.445 35.258C392.797 35.258 389.053 36.762 385.213 39.77C381.437 42.714 378.301 46.362 375.805 50.714C373.309 55.066 372.061 59.13 372.061 62.906C372.061 66.17 373.053 68.826 375.037 70.874ZM383.197 48.794C381.277 51.866 379.901 54.906 379.069 57.914C381.757 56.954 384.573 55.61 387.517 53.882C390.461 52.154 392.957 50.138 395.005 47.834C397.117 45.466 398.173 43.002 398.173 40.442C398.173 39.674 398.013 39.13 397.693 38.81C397.437 38.426 396.925 38.234 396.157 38.234C394.173 38.234 391.997 39.226 389.629 41.21C387.325 43.194 385.181 45.722 383.197 48.794ZM461.229 40.154C463.981 37.978 466.701 34.842 469.389 30.746C472.141 26.586 474.381 22.49 476.109 18.458C477.901 14.362 478.797 11.482 478.797 9.81801C478.797 9.30601 478.669 9.05 478.413 9.05C477.709 9.05 476.205 10.682 473.901 13.946C471.661 17.21 469.325 21.274 466.893 26.138C464.461 30.938 462.573 35.61 461.229 40.154ZM472.365 63.194C473.837 60.058 474.573 56.826 474.573 53.498C474.573 51.322 474.253 49.594 473.613 48.314C473.037 46.97 472.301 46.298 471.405 46.298C470.445 46.298 469.581 46.97 468.813 48.314C468.109 49.658 467.757 51.29 467.757 53.21C467.757 55.13 468.141 57.018 468.909 58.874C469.677 60.73 470.829 62.17 472.365 63.194ZM603.714 33.242C606.53 31.002 609.058 28.378 611.298 25.37C613.538 22.362 615.266 19.45 616.482 16.634C617.762 13.818 618.402 11.578 618.402 9.91399C618.402 9.33799 618.306 9.05 618.114 9.05C617.154 9.05 615.202 11.514 612.258 16.442C609.314 21.306 606.466 26.906 603.714 33.242Z" fill="#0C0A0A"/>
</svg>
