<svg width="68" height="76" viewBox="0 0 68 76" fill="none"
     xmlns="http://www.w3.org/2000/svg">
    <rect width="68" height="76" fill="#E5E5E5"/>
    <g id="NoBorder">
        <rect x="-1198" y="-22" width="10172.7" height="120" fill="white"/>
        <g id="npmVector">
            <path id="Vector"
                  d="M2.82874 19.4102L34.6431 0.886475L66.4572 19.4102V56.4275L34.6431 74.9512L2.82874 56.4275V19.4102Z"
                  fill="url(#paint0_radial)"/>
            <path id="Vector_2"
                  d="M35.5349 37.9039L65.1191 20.8672L66.3083 55.2086L35.5349 73.7916V37.9039Z"
                  fill="white"/>
            <path id="Vector_3"
                  d="M65.5655 19.8264L65.4761 56.2195L34.6134 74.1186L34.4647 38.3498L65.5655 19.8264ZM39.6086 41.3229L39.6975 65.2283L49.9555 59.2519L49.9257 41.2341L55.0995 38.1714V56.249L60.2729 53.2163L60.3027 29.0138L39.6084 41.3232L39.6086 41.3229Z"
                  fill="#CC0000"/>
            <path id="side1"
                  d="M36.6651 1.15409C35.2377 0.351305 32.9483 0.351305 31.5212 1.15409L3.33452 17.3585C1.90717 18.1613 0.777466 20.1832 0.777466 21.7888V54.1976C0.777466 55.8327 1.93696 57.8248 3.33452 58.6279L31.5212 74.832C32.9483 75.6348 35.2377 75.6348 36.6651 74.832L64.8515 58.6279C66.2789 57.8251 67.4088 55.803 67.4088 54.1976V21.7888C67.4088 20.1534 66.2491 18.1613 64.8518 17.3585L36.6651 1.15409ZM61.6704 18.1017C63.0975 18.9045 63.0975 20.2425 61.6704 21.0453L36.992 35.2279C35.5649 36.0307 33.2755 36.0307 31.8484 35.2279L6.813 20.8373C5.38565 20.0345 5.38565 18.6965 6.813 17.8937L31.4911 3.71115C32.9185 2.90836 35.2077 2.90836 36.635 3.71115L61.6704 18.1017ZM2.97755 24.1375C2.97755 22.5024 4.13731 21.8483 5.53461 22.6509L30.778 37.1606C32.2048 37.9634 33.3348 39.9853 33.3348 41.5908V70.3723C33.3348 72.0077 32.1753 72.6615 30.778 71.859L5.53461 57.3492C4.10752 56.5464 2.97755 54.5246 2.97755 52.919V24.1375ZM38.1518 71.4129C36.7244 72.2157 35.5947 71.5616 35.5947 69.9262V41.5908C35.5947 39.9555 36.7542 37.9634 38.1515 37.1606L62.6514 23.0969C64.0788 22.2942 65.2085 22.9483 65.2085 24.5836V52.919C65.2085 54.5543 64.049 56.5464 62.6514 57.3492L38.1518 71.4129Z"
                  fill="#910505"/>
        </g>
    </g>
    <defs>
        <radialGradient id="paint0_radial" cx="0" cy="0" r="1"
                        gradientUnits="userSpaceOnUse"
                        gradientTransform="translate(34.643 37.9188) rotate(90) scale(37.0324 31.8142)">
            <stop stop-color="#2B1509"/>
            <stop offset="1" stop-color="#2B1509" stop-opacity="0"/>
        </radialGradient>
    </defs>
</svg>
