<svg width="70" height="51" viewBox="0 0 70 51" fill="none"
     xmlns="http://www.w3.org/2000/svg">
    <rect width="70" height="51" fill="#E5E5E5"/>
    <g id="TwitterBirdWithOutLines">
        <g id="outLine3">
            <mask id="path-2-inside-1" fill="white">
                <path fill-rule="evenodd" clip-rule="evenodd"
                      d="M69.0068 3.45297C68.2489 4.87323 67.5382 6.32527 66.7177 7.71184C66.5544 7.98791 66.3167 8.37382 66.0126 8.82571C65.4081 9.72379 64.5229 10.9098 63.4176 12.0151C62.3554 13.0773 61.5408 13.748 60.9667 14.1647C60.9097 14.206 60.8551 14.2449 60.8028 14.2814C59.9146 31.7031 48.0796 49.4765 27.1059 50.5823C18.9843 51.0167 11.4225 47.6833 5.72826 42.997L0 38.2827L7.10981 40.4013C8.95612 40.9515 11.0574 41.2744 13.0569 41.2744C15.4489 41.2744 17.7624 40.7002 19.934 39.6617C20.304 39.4848 20.6698 39.2945 21.0312 39.0911C20.398 38.8445 19.7288 38.5684 19.0129 38.2331C18.7068 38.0897 18.3971 37.9383 18.0873 37.7791C16.6196 37.0247 15.0685 36.0528 13.886 34.8557C12.7057 33.6608 11.7447 32.0831 11.8569 30.1721L11.9375 28.7986L12.8013 28.7747L12.3987 28.433C10.6294 26.8371 9.21305 24.913 8.35838 23.03C7.53399 21.2136 7.10221 19.134 7.80576 17.4126L8.60466 15.4578L9.08634 15.8833C8.93814 15.5993 8.80637 15.307 8.69665 15.0083C7.83386 12.6712 7.63452 10.0641 7.84332 7.83513C7.94829 6.71447 8.15966 5.65278 8.46418 4.73594C8.76016 3.84483 9.18111 2.9778 9.77357 2.35027L11.8201 0.182529C12.1536 2.06108 12.1676 3.2624 13.4682 4.65896C14.6695 5.94882 17.0714 7.91958 21.7907 10.3112C25.8622 12.3634 30.27 13.8694 33.9397 14.3464C33.9344 14.3015 33.9294 14.257 33.9245 14.2128C33.8381 13.4265 33.7943 12.6214 33.7943 12.03C33.7943 5.19727 40.0631 0 47.3443 0C51.0705 0 54.4767 1.33783 56.9473 3.54427L59.2336 2.51543L65.1543 0.00458682C65.1543 1.03274 65.4154 2.48966 65.1256 3.49532L65.1233 3.50327C64.9443 4.11196 64.5446 4.72762 64.1729 5.22974C64.0492 5.39685 63.9171 5.56649 63.7788 5.73689C65.5346 5.01101 67.264 4.21041 69.0068 3.45297ZM68.4471 4.07333L62.8792 6.45453C62.8824 6.43578 63.1227 6.1455 63.2197 6.01841C63.4986 5.69607 63.6995 5.36506 63.9318 5.05127C64.3001 4.5536 64.6723 3.97357 64.8355 3.41862L64.8374 3.41226C65.0855 2.5512 64.8543 1.34483 64.8543 0.457673L59.3537 2.79035L56.8913 3.89846C54.467 1.66544 51.0726 0.3 47.3443 0.3C40.1893 0.3 34.0943 5.39982 34.0943 12.03C34.0943 12.6091 34.1373 13.4032 34.2227 14.18C34.2411 14.3473 34.262 14.5185 34.2856 14.6904C30.4934 14.2658 25.8853 12.711 21.6559 10.5792C16.9151 8.17679 14.481 6.1866 13.2487 4.86342C11.9618 3.48163 11.9558 2.66345 11.629 0.822024L9.99171 2.55622C9.44174 3.13874 9.03823 3.95937 8.74889 4.83051C8.45271 5.72223 8.24524 6.76108 8.14201 7.86311C7.93647 10.0573 8.13394 12.618 8.97818 14.9047C9.30035 15.7819 9.82349 16.6063 10.3956 17.3314C9.75464 16.9821 9.26383 16.4404 8.72258 15.9623L8.08347 17.5261C7.42662 19.1332 7.81955 21.1169 8.63156 22.906C9.46767 24.7481 10.8579 26.6391 12.5989 28.2096C12.6324 28.2399 12.6662 28.2699 12.7003 28.2997L13.5962 29.0375L12.2209 29.0909L12.1563 30.1897C12.0511 31.9825 12.9506 33.4818 14.0995 34.6449C15.2501 35.8097 16.7697 36.7645 18.2244 37.5123C18.3812 37.5929 18.538 37.6714 18.6943 37.748L21.7108 39.0873C21.2733 39.3647 20.1759 39.9273 20.1196 39.9633C17.9014 41.0301 15.5123 41.5744 13.0569 41.5744C11.0273 41.5744 8.89719 41.2469 7.02413 40.6888L1.33629 38.994L5.9189 42.7654C11.5291 47.3826 18.9519 50.6642 26.9149 50.2915L27.3638 50.2673C48.0298 49.0291 59.7531 31.4517 60.572 14.1658C60.6575 14.108 60.761 14.0458 60.8622 13.9723C61.4218 13.5663 62.2211 12.9036 63.2739 11.8508C64.3611 10.7636 65.2303 9.61868 65.8281 8.73047C66.1286 8.28408 66.372 7.87425 66.5328 7.60242C67.2137 6.45165 67.7848 5.23466 68.4471 4.07333Z"/>
            </mask>
            <path fill-rule="evenodd" clip-rule="evenodd"
                  d="M69.0068 3.45297C68.2489 4.87323 67.5382 6.32527 66.7177 7.71184C66.5544 7.98791 66.3167 8.37382 66.0126 8.82571C65.4081 9.72379 64.5229 10.9098 63.4176 12.0151C62.3554 13.0773 61.5408 13.748 60.9667 14.1647C60.9097 14.206 60.8551 14.2449 60.8028 14.2814C59.9146 31.7031 48.0796 49.4765 27.1059 50.5823C18.9843 51.0167 11.4225 47.6833 5.72826 42.997L0 38.2827L7.10981 40.4013C8.95612 40.9515 11.0574 41.2744 13.0569 41.2744C15.4489 41.2744 17.7624 40.7002 19.934 39.6617C20.304 39.4848 20.6698 39.2945 21.0312 39.0911C20.398 38.8445 19.7288 38.5684 19.0129 38.2331C18.7068 38.0897 18.3971 37.9383 18.0873 37.7791C16.6196 37.0247 15.0685 36.0528 13.886 34.8557C12.7057 33.6608 11.7447 32.0831 11.8569 30.1721L11.9375 28.7986L12.8013 28.7747L12.3987 28.433C10.6294 26.8371 9.21305 24.913 8.35838 23.03C7.53399 21.2136 7.10221 19.134 7.80576 17.4126L8.60466 15.4578L9.08634 15.8833C8.93814 15.5993 8.80637 15.307 8.69665 15.0083C7.83386 12.6712 7.63452 10.0641 7.84332 7.83513C7.94829 6.71447 8.15966 5.65278 8.46418 4.73594C8.76016 3.84483 9.18111 2.9778 9.77357 2.35027L11.8201 0.182529C12.1536 2.06108 12.1676 3.2624 13.4682 4.65896C14.6695 5.94882 17.0714 7.91958 21.7907 10.3112C25.8622 12.3634 30.27 13.8694 33.9397 14.3464C33.9344 14.3015 33.9294 14.257 33.9245 14.2128C33.8381 13.4265 33.7943 12.6214 33.7943 12.03C33.7943 5.19727 40.0631 0 47.3443 0C51.0705 0 54.4767 1.33783 56.9473 3.54427L59.2336 2.51543L65.1543 0.00458682C65.1543 1.03274 65.4154 2.48966 65.1256 3.49532L65.1233 3.50327C64.9443 4.11196 64.5446 4.72762 64.1729 5.22974C64.0492 5.39685 63.9171 5.56649 63.7788 5.73689C65.5346 5.01101 67.264 4.21041 69.0068 3.45297ZM68.4471 4.07333L62.8792 6.45453C62.8824 6.43578 63.1227 6.1455 63.2197 6.01841C63.4986 5.69607 63.6995 5.36506 63.9318 5.05127C64.3001 4.5536 64.6723 3.97357 64.8355 3.41862L64.8374 3.41226C65.0855 2.5512 64.8543 1.34483 64.8543 0.457673L59.3537 2.79035L56.8913 3.89846C54.467 1.66544 51.0726 0.3 47.3443 0.3C40.1893 0.3 34.0943 5.39982 34.0943 12.03C34.0943 12.6091 34.1373 13.4032 34.2227 14.18C34.2411 14.3473 34.262 14.5185 34.2856 14.6904C30.4934 14.2658 25.8853 12.711 21.6559 10.5792C16.9151 8.17679 14.481 6.1866 13.2487 4.86342C11.9618 3.48163 11.9558 2.66345 11.629 0.822024L9.99171 2.55622C9.44174 3.13874 9.03823 3.95937 8.74889 4.83051C8.45271 5.72223 8.24524 6.76108 8.14201 7.86311C7.93647 10.0573 8.13394 12.618 8.97818 14.9047C9.30035 15.7819 9.82349 16.6063 10.3956 17.3314C9.75464 16.9821 9.26383 16.4404 8.72258 15.9623L8.08347 17.5261C7.42662 19.1332 7.81955 21.1169 8.63156 22.906C9.46767 24.7481 10.8579 26.6391 12.5989 28.2096C12.6324 28.2399 12.6662 28.2699 12.7003 28.2997L13.5962 29.0375L12.2209 29.0909L12.1563 30.1897C12.0511 31.9825 12.9506 33.4818 14.0995 34.6449C15.2501 35.8097 16.7697 36.7645 18.2244 37.5123C18.3812 37.5929 18.538 37.6714 18.6943 37.748L21.7108 39.0873C21.2733 39.3647 20.1759 39.9273 20.1196 39.9633C17.9014 41.0301 15.5123 41.5744 13.0569 41.5744C11.0273 41.5744 8.89719 41.2469 7.02413 40.6888L1.33629 38.994L5.9189 42.7654C11.5291 47.3826 18.9519 50.6642 26.9149 50.2915L27.3638 50.2673C48.0298 49.0291 59.7531 31.4517 60.572 14.1658C60.6575 14.108 60.761 14.0458 60.8622 13.9723C61.4218 13.5663 62.2211 12.9036 63.2739 11.8508C64.3611 10.7636 65.2303 9.61868 65.8281 8.73047C66.1286 8.28408 66.372 7.87425 66.5328 7.60242C67.2137 6.45165 67.7848 5.23466 68.4471 4.07333Z"
                  stroke-miterlimit="5.75877"
                  stroke-linecap="round" mask="url(#path-2-inside-1)"/>
        </g>
        <g id="birdOutline2andHalf">
            <mask id="path-3-inside-2" fill="white">
                <path fill-rule="evenodd" clip-rule="evenodd"
                      d="M65.8549 8.74896C66.156 8.30166 66.3911 7.91991 66.5523 7.64738C67.2491 6.46967 67.8545 5.23745 68.4982 4.03106C66.6536 4.83274 64.828 5.65369 62.9436 6.4019C63.3232 5.97852 63.6864 5.54438 63.9944 5.12823C64.3633 4.62982 64.74 4.04385 64.9059 3.47995L64.9078 3.47332C65.1627 2.58857 64.9267 1.33975 64.9267 0.429377L59.3561 2.79175L56.9232 3.88656C54.491 1.65797 51.0947 0.297218 47.3667 0.297218C40.1907 0.297218 34.0667 5.41328 34.0667 12.0772C34.0667 12.6584 34.1098 13.4543 34.1954 14.2326C34.2116 14.3796 34.2297 14.5297 34.2498 14.6807C30.4781 14.2469 25.9039 12.7003 21.701 10.5819C16.9636 8.18121 14.5348 6.19421 13.3077 4.87657C12.0082 3.48127 12.0151 2.63224 11.6832 0.76266L9.97776 2.56911C9.42072 3.15914 9.0143 3.9875 8.72385 4.86196C8.42628 5.75787 8.21816 6.80053 8.11464 7.90567C7.90856 10.1057 8.10634 12.6741 8.95367 14.9691C9.149 15.501 10.1517 17.166 10.0643 17.1032C9.58877 16.7617 9.16425 16.3131 8.72534 15.9254L8.05959 17.5544C7.39497 19.1806 7.79437 21.1802 8.60845 22.9739C9.44777 24.8231 10.8427 26.7199 12.5888 28.2948C12.8869 28.5646 13.2137 28.8171 13.5543 29.0518L12.196 29.0894L12.1288 30.234C12.0224 32.0465 12.9322 33.5588 14.0863 34.7272C15.2422 35.8975 16.7671 36.8551 18.224 37.604C19.4402 38.2291 20.6561 38.7325 21.6597 39.1071C19.0199 40.6867 16.1278 41.5873 13.1067 41.5873C11.0821 41.5873 8.95677 41.2605 7.08817 40.7037L1.16333 38.9383L5.93688 42.8669C11.5956 47.5239 19.0985 50.8261 27.1435 50.3955C48.0025 49.2955 59.7754 31.5801 60.609 14.2084C60.6892 14.1539 60.7761 14.093 60.8696 14.0252C61.4316 13.6173 62.2362 12.9555 63.2906 11.9011C64.3808 10.8109 65.256 9.63882 65.8549 8.74896ZM61.8331 7.14532C62.0265 6.94823 62.2198 6.7462 62.409 6.54253C62.896 6.01818 63.3698 5.4678 63.7533 4.94976C64.1188 4.4558 64.468 3.90547 64.6181 3.3953L64.6195 3.39026C64.8345 2.64434 64.6267 1.65527 64.6267 0.882464L59.4763 3.06667L56.8646 4.2419C54.481 1.98664 51.097 0.597218 47.3667 0.597218C40.3169 0.597218 34.3667 5.61583 34.3667 12.0772C34.3667 12.6461 34.4091 13.431 34.4936 14.1998C34.5233 14.4696 34.5592 14.7473 34.6022 15.0196C30.7082 14.6447 25.9282 13.0486 21.5651 10.8493C16.807 8.43812 14.3462 6.43189 13.0881 5.08103C11.8801 3.7839 11.7891 3.0757 11.4921 1.40216L10.1959 2.77506C9.68135 3.32008 9.29237 4.10203 9.00856 4.95653C8.71933 5.82732 8.51511 6.84714 8.41333 7.93364C8.21051 10.0989 8.40642 12.6208 9.23519 14.8655C9.67728 16.0694 10.5167 17.1802 11.3368 18.0662C10.2375 17.6496 9.7016 17.188 8.84326 16.4298L8.3373 17.6679C7.71938 19.1798 8.07993 21.0835 8.88162 22.8499C9.70247 24.6584 11.0715 26.5223 12.7896 28.0719C13.3099 28.5428 13.9236 28.9617 14.5473 29.3245L12.4794 29.3816L12.4283 30.2515C12.3288 31.9459 13.177 33.3798 14.2997 34.5164C15.4238 35.6544 16.9171 36.5949 18.3611 37.3372C19.8086 38.0812 21.2579 38.6519 22.3433 39.0366C19.5239 40.842 16.3941 41.8873 13.1067 41.8873C11.052 41.8873 8.89783 41.556 7.0025 40.9912L2.49962 39.6495L6.12752 42.6352C11.7432 47.2569 19.1744 50.5214 27.1267 50.0959C47.8496 49.0036 59.5494 31.3562 60.3163 14.043C60.4257 13.9715 60.5514 13.8854 60.6934 13.7824C61.2408 13.3851 62.0335 12.7339 63.0784 11.689C64.1506 10.6168 64.974 9.43555 65.5662 8.55556C65.8636 8.11376 66.0586 7.77003 66.2173 7.50174C66.7659 6.57464 67.3215 5.59899 67.8283 4.64935C65.8448 5.51136 63.8712 6.4168 61.8331 7.14532Z"/>
            </mask>
            <path fill-rule="evenodd" clip-rule="evenodd"
                  d="M65.8549 8.74896C66.156 8.30166 66.3911 7.91991 66.5523 7.64738C67.2491 6.46967 67.8545 5.23745 68.4982 4.03106C66.6536 4.83274 64.828 5.65369 62.9436 6.4019C63.3232 5.97852 63.6864 5.54438 63.9944 5.12823C64.3633 4.62982 64.74 4.04385 64.9059 3.47995L64.9078 3.47332C65.1627 2.58857 64.9267 1.33975 64.9267 0.429377L59.3561 2.79175L56.9232 3.88656C54.491 1.65797 51.0947 0.297218 47.3667 0.297218C40.1907 0.297218 34.0667 5.41328 34.0667 12.0772C34.0667 12.6584 34.1098 13.4543 34.1954 14.2326C34.2116 14.3796 34.2297 14.5297 34.2498 14.6807C30.4781 14.2469 25.9039 12.7003 21.701 10.5819C16.9636 8.18121 14.5348 6.19421 13.3077 4.87657C12.0082 3.48127 12.0151 2.63224 11.6832 0.76266L9.97776 2.56911C9.42072 3.15914 9.0143 3.9875 8.72385 4.86196C8.42628 5.75787 8.21816 6.80053 8.11464 7.90567C7.90856 10.1057 8.10634 12.6741 8.95367 14.9691C9.149 15.501 10.1517 17.166 10.0643 17.1032C9.58877 16.7617 9.16425 16.3131 8.72534 15.9254L8.05959 17.5544C7.39497 19.1806 7.79437 21.1802 8.60845 22.9739C9.44777 24.8231 10.8427 26.7199 12.5888 28.2948C12.8869 28.5646 13.2137 28.8171 13.5543 29.0518L12.196 29.0894L12.1288 30.234C12.0224 32.0465 12.9322 33.5588 14.0863 34.7272C15.2422 35.8975 16.7671 36.8551 18.224 37.604C19.4402 38.2291 20.6561 38.7325 21.6597 39.1071C19.0199 40.6867 16.1278 41.5873 13.1067 41.5873C11.0821 41.5873 8.95677 41.2605 7.08817 40.7037L1.16333 38.9383L5.93688 42.8669C11.5956 47.5239 19.0985 50.8261 27.1435 50.3955C48.0025 49.2955 59.7754 31.5801 60.609 14.2084C60.6892 14.1539 60.7761 14.093 60.8696 14.0252C61.4316 13.6173 62.2362 12.9555 63.2906 11.9011C64.3808 10.8109 65.256 9.63882 65.8549 8.74896ZM61.8331 7.14532C62.0265 6.94823 62.2198 6.7462 62.409 6.54253C62.896 6.01818 63.3698 5.4678 63.7533 4.94976C64.1188 4.4558 64.468 3.90547 64.6181 3.3953L64.6195 3.39026C64.8345 2.64434 64.6267 1.65527 64.6267 0.882464L59.4763 3.06667L56.8646 4.2419C54.481 1.98664 51.097 0.597218 47.3667 0.597218C40.3169 0.597218 34.3667 5.61583 34.3667 12.0772C34.3667 12.6461 34.4091 13.431 34.4936 14.1998C34.5233 14.4696 34.5592 14.7473 34.6022 15.0196C30.7082 14.6447 25.9282 13.0486 21.5651 10.8493C16.807 8.43812 14.3462 6.43189 13.0881 5.08103C11.8801 3.7839 11.7891 3.0757 11.4921 1.40216L10.1959 2.77506C9.68135 3.32008 9.29237 4.10203 9.00856 4.95653C8.71933 5.82732 8.51511 6.84714 8.41333 7.93364C8.21051 10.0989 8.40642 12.6208 9.23519 14.8655C9.67728 16.0694 10.5167 17.1802 11.3368 18.0662C10.2375 17.6496 9.7016 17.188 8.84326 16.4298L8.3373 17.6679C7.71938 19.1798 8.07993 21.0835 8.88162 22.8499C9.70247 24.6584 11.0715 26.5223 12.7896 28.0719C13.3099 28.5428 13.9236 28.9617 14.5473 29.3245L12.4794 29.3816L12.4283 30.2515C12.3288 31.9459 13.177 33.3798 14.2997 34.5164C15.4238 35.6544 16.9171 36.5949 18.3611 37.3372C19.8086 38.0812 21.2579 38.6519 22.3433 39.0366C19.5239 40.842 16.3941 41.8873 13.1067 41.8873C11.052 41.8873 8.89783 41.556 7.0025 40.9912L2.49962 39.6495L6.12752 42.6352C11.7432 47.2569 19.1744 50.5214 27.1267 50.0959C47.8496 49.0036 59.5494 31.3562 60.3163 14.043C60.4257 13.9715 60.5514 13.8854 60.6934 13.7824C61.2408 13.3851 62.0335 12.7339 63.0784 11.689C64.1506 10.6168 64.974 9.43555 65.5662 8.55556C65.8636 8.11376 66.0586 7.77003 66.2173 7.50174C66.7659 6.57464 67.3215 5.59899 67.8283 4.64935C65.8448 5.51136 63.8712 6.4168 61.8331 7.14532Z"
                   stroke-miterlimit="5.75877"
                  stroke-linecap="round" mask="url(#path-3-inside-2)"/>
        </g>
        <g id="outLine2">
            <mask id="path-4-inside-3" fill="white">
                <path fill-rule="evenodd" clip-rule="evenodd"
                      d="M63.1031 11.7025C62.0567 12.749 61.262 13.402 60.7121 13.801C60.5786 13.8979 60.4594 13.9799 60.3544 14.049C59.5764 31.3719 47.8643 49.0305 27.1187 50.124C19.1509 50.5503 11.7079 47.2795 6.08507 42.652L2.26624 39.5091L7.00611 40.9215C8.89698 41.4849 11.0464 41.8154 13.096 41.8154C16.339 41.8154 19.4294 40.7948 22.2194 39.0275C21.1442 38.6431 19.7352 38.0833 18.3276 37.3598C16.8815 36.6164 15.3829 35.6731 14.2535 34.5297C13.1255 33.3878 12.2671 31.9408 12.3677 30.2268L12.4215 29.3111L14.3616 29.2575C13.7876 28.9142 13.2274 28.5233 12.7461 28.0878C11.023 26.5338 9.64945 24.6642 8.82542 22.8487C8.02166 21.0778 7.65464 19.1581 8.28034 17.6271L8.81294 16.3239C9.55662 16.9809 10.2184 17.5473 11.1448 17.9199C10.3694 17.0586 9.59669 16.0022 9.1776 14.8609C8.34574 12.6079 8.14951 10.0782 8.35288 7.90715C8.45494 6.81754 8.65981 5.79391 8.95043 4.91893C9.23536 4.06111 9.62724 3.27142 10.1489 2.7189L11.5493 1.25625C11.681 1.99803 11.777 2.79831 12.1353 3.4789C12.2965 3.78513 12.526 4.3197 13.1509 4.99062C14.4038 6.33596 16.8225 8.37349 21.5772 10.783C25.9133 12.9686 30.6586 14.5564 34.5322 14.9417C34.4934 14.6889 34.4607 14.4326 34.4333 14.1835C34.3485 13.4131 34.306 12.6263 34.306 12.0554C34.306 5.56024 40.2852 0.525383 47.356 0.525383C51.0859 0.525383 54.472 1.90993 56.8639 4.16074L59.4456 2.99901L64.666 0.785114C64.666 1.58058 64.8783 2.61381 64.6569 3.38227L64.6554 3.38757C64.5027 3.90669 64.1489 4.46297 63.7828 4.95767C63.3979 5.47772 62.9227 6.02959 62.435 6.55472C62.2952 6.70516 62.1532 6.85473 62.0106 7.00208C64.0184 6.26446 65.9678 5.37692 67.9292 4.52446C66.5542 7.10129 65.1886 9.61701 63.1031 11.7025ZM61.2363 7.66372C61.1515 7.68687 61.0199 7.69515 60.9381 7.71463C61.3592 7.31132 61.788 6.81041 62.2152 6.35056C62.6985 5.83015 63.1656 5.28719 63.5416 4.77919C63.9045 4.28895 64.2307 3.76831 64.3676 3.30292L64.3686 3.29921C64.5524 2.66142 64.4364 1.91059 64.4364 1.25017L59.5767 3.30894L56.8387 4.54808C54.4977 2.27053 51.0885 0.825383 47.356 0.825383C40.4115 0.825383 34.606 5.76279 34.606 12.0554C34.606 12.6141 34.6478 13.3898 34.7315 14.1507C34.7728 14.5264 34.8258 14.9127 34.8925 15.2752C30.897 14.9562 25.9405 13.3183 21.4418 11.0507C16.666 8.63055 14.1785 6.60818 12.8945 5.22957C12.2537 4.54149 11.9149 4.01619 11.74 3.68385C11.4536 3.13984 11.4281 2.51039 11.3221 1.91323L10.367 2.92484C9.88787 3.43236 9.51343 4.17564 9.23514 5.0135C8.95286 5.86336 8.75189 6.86415 8.65157 7.93513C8.45147 10.0713 8.64582 12.5546 9.45913 14.7573C10.0058 16.2462 11.0877 17.5068 12.2159 18.5924C12.0178 18.5417 11.8154 18.4824 11.6124 18.413C10.5538 18.0512 9.92041 17.7602 8.93086 16.8284L8.55804 17.7406C7.97905 19.1573 8.30722 20.9811 9.0986 22.7247C9.90417 24.4996 11.2519 26.3363 12.947 27.865C13.6756 28.5244 14.5985 29.0828 15.4739 29.5269L12.7049 29.6034L12.6672 30.2444C12.5735 31.8402 13.3704 33.2088 14.4669 34.3189C15.5645 35.43 17.0315 36.3562 18.4648 37.093C19.8804 37.8207 21.3922 38.4839 22.9006 38.9949C19.9385 40.9933 16.606 42.1154 13.096 42.1154C11.0163 42.1154 8.83805 41.7804 6.92043 41.209L3.60252 40.2203L6.27571 42.4203C11.8558 47.0127 19.2278 50.246 27.1034 49.8244C47.7128 48.7378 59.3515 31.1459 60.0614 13.8808C60.1892 13.8005 60.3473 13.695 60.5359 13.5582C61.0712 13.1698 61.854 12.5274 62.891 11.4904C64.7453 9.63613 65.9749 7.51769 67.1993 5.22327C65.1993 6.09245 63.3389 7.07131 61.2363 7.66372Z"/>
            </mask>
            <path fill-rule="evenodd" clip-rule="evenodd"
                  d="M63.1031 11.7025C62.0567 12.749 61.262 13.402 60.7121 13.801C60.5786 13.8979 60.4594 13.9799 60.3544 14.049C59.5764 31.3719 47.8643 49.0305 27.1187 50.124C19.1509 50.5503 11.7079 47.2795 6.08507 42.652L2.26624 39.5091L7.00611 40.9215C8.89698 41.4849 11.0464 41.8154 13.096 41.8154C16.339 41.8154 19.4294 40.7948 22.2194 39.0275C21.1442 38.6431 19.7352 38.0833 18.3276 37.3598C16.8815 36.6164 15.3829 35.6731 14.2535 34.5297C13.1255 33.3878 12.2671 31.9408 12.3677 30.2268L12.4215 29.3111L14.3616 29.2575C13.7876 28.9142 13.2274 28.5233 12.7461 28.0878C11.023 26.5338 9.64945 24.6642 8.82542 22.8487C8.02166 21.0778 7.65464 19.1581 8.28034 17.6271L8.81294 16.3239C9.55662 16.9809 10.2184 17.5473 11.1448 17.9199C10.3694 17.0586 9.59669 16.0022 9.1776 14.8609C8.34574 12.6079 8.14951 10.0782 8.35288 7.90715C8.45494 6.81754 8.65981 5.79391 8.95043 4.91893C9.23536 4.06111 9.62724 3.27142 10.1489 2.7189L11.5493 1.25625C11.681 1.99803 11.777 2.79831 12.1353 3.4789C12.2965 3.78513 12.526 4.3197 13.1509 4.99062C14.4038 6.33596 16.8225 8.37349 21.5772 10.783C25.9133 12.9686 30.6586 14.5564 34.5322 14.9417C34.4934 14.6889 34.4607 14.4326 34.4333 14.1835C34.3485 13.4131 34.306 12.6263 34.306 12.0554C34.306 5.56024 40.2852 0.525383 47.356 0.525383C51.0859 0.525383 54.472 1.90993 56.8639 4.16074L59.4456 2.99901L64.666 0.785114C64.666 1.58058 64.8783 2.61381 64.6569 3.38227L64.6554 3.38757C64.5027 3.90669 64.1489 4.46297 63.7828 4.95767C63.3979 5.47772 62.9227 6.02959 62.435 6.55472C62.2952 6.70516 62.1532 6.85473 62.0106 7.00208C64.0184 6.26446 65.9678 5.37692 67.9292 4.52446C66.5542 7.10129 65.1886 9.61701 63.1031 11.7025ZM61.2363 7.66372C61.1515 7.68687 61.0199 7.69515 60.9381 7.71463C61.3592 7.31132 61.788 6.81041 62.2152 6.35056C62.6985 5.83015 63.1656 5.28719 63.5416 4.77919C63.9045 4.28895 64.2307 3.76831 64.3676 3.30292L64.3686 3.29921C64.5524 2.66142 64.4364 1.91059 64.4364 1.25017L59.5767 3.30894L56.8387 4.54808C54.4977 2.27053 51.0885 0.825383 47.356 0.825383C40.4115 0.825383 34.606 5.76279 34.606 12.0554C34.606 12.6141 34.6478 13.3898 34.7315 14.1507C34.7728 14.5264 34.8258 14.9127 34.8925 15.2752C30.897 14.9562 25.9405 13.3183 21.4418 11.0507C16.666 8.63055 14.1785 6.60818 12.8945 5.22957C12.2537 4.54149 11.9149 4.01619 11.74 3.68385C11.4536 3.13984 11.4281 2.51039 11.3221 1.91323L10.367 2.92484C9.88787 3.43236 9.51343 4.17564 9.23514 5.0135C8.95286 5.86336 8.75189 6.86415 8.65157 7.93513C8.45147 10.0713 8.64582 12.5546 9.45913 14.7573C10.0058 16.2462 11.0877 17.5068 12.2159 18.5924C12.0178 18.5417 11.8154 18.4824 11.6124 18.413C10.5538 18.0512 9.92041 17.7602 8.93086 16.8284L8.55804 17.7406C7.97905 19.1573 8.30722 20.9811 9.0986 22.7247C9.90417 24.4996 11.2519 26.3363 12.947 27.865C13.6756 28.5244 14.5985 29.0828 15.4739 29.5269L12.7049 29.6034L12.6672 30.2444C12.5735 31.8402 13.3704 33.2088 14.4669 34.3189C15.5645 35.43 17.0315 36.3562 18.4648 37.093C19.8804 37.8207 21.3922 38.4839 22.9006 38.9949C19.9385 40.9933 16.606 42.1154 13.096 42.1154C11.0163 42.1154 8.83805 41.7804 6.92043 41.209L3.60252 40.2203L6.27571 42.4203C11.8558 47.0127 19.2278 50.246 27.1034 49.8244C47.7128 48.7378 59.3515 31.1459 60.0614 13.8808C60.1892 13.8005 60.3473 13.695 60.5359 13.5582C61.0712 13.1698 61.854 12.5274 62.891 11.4904C64.7453 9.63613 65.9749 7.51769 67.1993 5.22327C65.1993 6.09245 63.3389 7.07131 61.2363 7.66372Z"
                   stroke-miterlimit="5.75877"
                  stroke-linecap="round" mask="url(#path-4-inside-3)"/>
        </g>
        <g id="outLine1andHalf">
            <mask id="path-5-inside-4" fill="white">
                <path fill-rule="evenodd" clip-rule="evenodd"
                      d="M62.964 11.5673C64.0242 10.5072 64.8793 9.36295 65.4671 8.48954C66.1999 7.40089 66.7916 6.2375 67.4086 5.0813C65.3789 5.96339 63.3301 6.99212 61.1931 7.59428C61.1708 7.60039 61.1485 7.60636 61.1263 7.61221C61.5081 7.24237 61.9071 6.83778 62.2895 6.42617C62.7736 5.90498 63.242 5.36053 63.6195 4.85053C63.9829 4.35954 64.3137 3.83296 64.4532 3.35862L64.4544 3.35464C64.6442 2.69588 64.4537 1.88715 64.4537 1.20427L59.5833 3.2697L56.8508 4.49935C54.501 2.22626 51.1257 0.816971 47.3937 0.816971C40.4281 0.816971 34.5766 5.64056 34.5937 12.097C34.5937 12.6577 34.6356 13.4353 34.7194 14.1977C34.7584 14.5518 34.8078 14.9161 34.8694 15.2617C30.8942 14.931 25.9734 13.3015 21.502 11.0476C16.7298 8.6293 14.2475 6.61015 12.9688 5.23709C11.9686 4.16318 11.5794 3.289 11.3282 1.87405L10.3595 2.9014C9.87327 3.41642 9.50476 4.19814 9.22536 5.03932C8.94169 5.89337 8.74007 6.89797 8.63946 7.97205C8.43881 10.1141 8.63348 12.6051 9.44988 14.8161C9.98176 16.2647 11.1127 17.5873 12.0806 18.5359C11.9435 18.4974 11.805 18.4548 11.6663 18.4073C10.9201 18.1523 10.4193 17.9044 10.1153 17.7295C9.67556 17.4764 9.32895 17.1216 8.94888 16.7859L8.54943 17.7633C7.96265 19.199 8.2973 21.0388 9.09074 22.787C9.89936 24.5686 11.2513 26.4107 12.9511 27.9436C13.6357 28.5633 14.4901 29.0936 15.3155 29.5239L12.6953 29.5963L12.655 30.283C12.5601 31.8985 13.3672 33.2802 14.469 34.3956C15.5719 35.5121 17.0442 36.4412 18.4796 37.179C19.9223 37.9206 21.3686 38.4896 22.4501 38.8725C22.5786 38.9179 22.7021 38.9608 22.82 39.0012C19.886 40.9606 16.5991 42.107 13.1337 42.107C11.0589 42.107 8.88554 41.7728 6.97238 41.2027L3.41748 40.1434L6.28161 42.5005C11.8688 47.0988 19.2528 50.3383 27.1438 49.9159C47.7757 48.8281 59.4265 31.2253 60.1479 13.9506C60.2727 13.8717 60.4243 13.7699 60.6029 13.6403C61.1406 13.2501 61.9254 12.6059 62.964 11.5673ZM60.1601 8.10576C60.4831 8.06384 60.8632 7.99506 61.2735 7.88296C63.1503 7.35449 64.9235 6.50084 66.7072 5.72562C66.2297 6.62038 65.7851 7.47949 65.2183 8.32168C64.6371 9.18522 63.794 10.3128 62.7519 11.3548C61.7227 12.384 60.9499 13.0175 60.4267 13.3971C60.1816 13.575 59.9911 13.6973 59.8545 13.7785C59.2031 30.9971 47.625 48.5354 27.1277 49.616C19.3291 50.0334 12.0166 46.8315 6.47225 42.2686L4.75377 40.8543L6.88671 41.4898C8.82661 42.0679 11.0288 42.4067 13.1337 42.4067C16.8671 42.4067 20.3941 41.146 23.4927 38.9506C23.2278 38.8652 22.9053 38.715 22.5503 38.5893C21.4765 38.2092 20.0436 37.6453 18.6167 36.9119C17.1942 36.1807 15.7535 35.2687 14.6825 34.1844C13.6121 33.1008 12.8666 31.7976 12.9545 30.3003L12.9787 29.8882L16.5626 29.7892C15.463 29.3026 14.1236 28.5999 13.152 27.7206C11.4802 26.2128 10.1541 24.4036 9.36392 22.6626C8.58285 20.9417 8.28707 19.1979 8.82713 17.8764L9.0668 17.29C9.36883 17.5568 9.6184 17.7893 9.96566 17.9891C10.2871 18.1741 10.8055 18.4298 11.5692 18.6909C12.1025 18.8731 12.63 18.9876 13.0894 19.0592C12.871 18.8687 12.6337 18.6532 12.3887 18.4167C11.4084 17.4707 10.2576 16.1453 9.7314 14.7121C8.93356 12.5515 8.74076 10.1069 8.93815 7.99968C9.03702 6.94423 9.23474 5.96247 9.51007 5.13354C9.78283 4.31232 10.1427 3.60771 10.5865 3.1377L11.2004 2.48738C11.4064 3.80374 11.8983 4.52753 12.7492 5.44119C14.059 6.84753 16.5733 8.886 21.3666 11.315C26.0039 13.6525 31.1429 15.3329 35.2397 15.5891C35.1445 15.1529 35.0715 14.6538 35.0176 14.1646C34.9348 13.4116 34.8937 12.6451 34.8937 12.0966C34.9959 5.98692 40.5543 1.11662 47.3937 1.11662C51.1286 1.11662 54.5253 2.57148 56.8216 4.87135L59.7121 3.5657L64.2166 1.65123C64.2166 2.20171 64.3225 2.72843 64.1661 3.27123L64.1654 3.27361C64.0417 3.69422 63.7385 4.18517 63.3784 4.6717C63.0098 5.16964 62.5494 5.70519 62.0696 6.22166C61.4242 6.91654 60.7317 7.58992 60.1601 8.10576Z"/>
            </mask>
            <path fill-rule="evenodd" clip-rule="evenodd"
                  d="M62.964 11.5673C64.0242 10.5072 64.8793 9.36295 65.4671 8.48954C66.1999 7.40089 66.7916 6.2375 67.4086 5.0813C65.3789 5.96339 63.3301 6.99212 61.1931 7.59428C61.1708 7.60039 61.1485 7.60636 61.1263 7.61221C61.5081 7.24237 61.9071 6.83778 62.2895 6.42617C62.7736 5.90498 63.242 5.36053 63.6195 4.85053C63.9829 4.35954 64.3137 3.83296 64.4532 3.35862L64.4544 3.35464C64.6442 2.69588 64.4537 1.88715 64.4537 1.20427L59.5833 3.2697L56.8508 4.49935C54.501 2.22626 51.1257 0.816971 47.3937 0.816971C40.4281 0.816971 34.5766 5.64056 34.5937 12.097C34.5937 12.6577 34.6356 13.4353 34.7194 14.1977C34.7584 14.5518 34.8078 14.9161 34.8694 15.2617C30.8942 14.931 25.9734 13.3015 21.502 11.0476C16.7298 8.6293 14.2475 6.61015 12.9688 5.23709C11.9686 4.16318 11.5794 3.289 11.3282 1.87405L10.3595 2.9014C9.87327 3.41642 9.50476 4.19814 9.22536 5.03932C8.94169 5.89337 8.74007 6.89797 8.63946 7.97205C8.43881 10.1141 8.63348 12.6051 9.44988 14.8161C9.98176 16.2647 11.1127 17.5873 12.0806 18.5359C11.9435 18.4974 11.805 18.4548 11.6663 18.4073C10.9201 18.1523 10.4193 17.9044 10.1153 17.7295C9.67556 17.4764 9.32895 17.1216 8.94888 16.7859L8.54943 17.7633C7.96265 19.199 8.2973 21.0388 9.09074 22.787C9.89936 24.5686 11.2513 26.4107 12.9511 27.9436C13.6357 28.5633 14.4901 29.0936 15.3155 29.5239L12.6953 29.5963L12.655 30.283C12.5601 31.8985 13.3672 33.2802 14.469 34.3956C15.5719 35.5121 17.0442 36.4412 18.4796 37.179C19.9223 37.9206 21.3686 38.4896 22.4501 38.8725C22.5786 38.9179 22.7021 38.9608 22.82 39.0012C19.886 40.9606 16.5991 42.107 13.1337 42.107C11.0589 42.107 8.88554 41.7728 6.97238 41.2027L3.41748 40.1434L6.28161 42.5005C11.8688 47.0988 19.2528 50.3383 27.1438 49.9159C47.7757 48.8281 59.4265 31.2253 60.1479 13.9506C60.2727 13.8717 60.4243 13.7699 60.6029 13.6403C61.1406 13.2501 61.9254 12.6059 62.964 11.5673ZM60.1601 8.10576C60.4831 8.06384 60.8632 7.99506 61.2735 7.88296C63.1503 7.35449 64.9235 6.50084 66.7072 5.72562C66.2297 6.62038 65.7851 7.47949 65.2183 8.32168C64.6371 9.18522 63.794 10.3128 62.7519 11.3548C61.7227 12.384 60.9499 13.0175 60.4267 13.3971C60.1816 13.575 59.9911 13.6973 59.8545 13.7785C59.2031 30.9971 47.625 48.5354 27.1277 49.616C19.3291 50.0334 12.0166 46.8315 6.47225 42.2686L4.75377 40.8543L6.88671 41.4898C8.82661 42.0679 11.0288 42.4067 13.1337 42.4067C16.8671 42.4067 20.3941 41.146 23.4927 38.9506C23.2278 38.8652 22.9053 38.715 22.5503 38.5893C21.4765 38.2092 20.0436 37.6453 18.6167 36.9119C17.1942 36.1807 15.7535 35.2687 14.6825 34.1844C13.6121 33.1008 12.8666 31.7976 12.9545 30.3003L12.9787 29.8882L16.5626 29.7892C15.463 29.3026 14.1236 28.5999 13.152 27.7206C11.4802 26.2128 10.1541 24.4036 9.36392 22.6626C8.58285 20.9417 8.28707 19.1979 8.82713 17.8764L9.0668 17.29C9.36883 17.5568 9.6184 17.7893 9.96566 17.9891C10.2871 18.1741 10.8055 18.4298 11.5692 18.6909C12.1025 18.8731 12.63 18.9876 13.0894 19.0592C12.871 18.8687 12.6337 18.6532 12.3887 18.4167C11.4084 17.4707 10.2576 16.1453 9.7314 14.7121C8.93356 12.5515 8.74076 10.1069 8.93815 7.99968C9.03702 6.94423 9.23474 5.96247 9.51007 5.13354C9.78283 4.31232 10.1427 3.60771 10.5865 3.1377L11.2004 2.48738C11.4064 3.80374 11.8983 4.52753 12.7492 5.44119C14.059 6.84753 16.5733 8.886 21.3666 11.315C26.0039 13.6525 31.1429 15.3329 35.2397 15.5891C35.1445 15.1529 35.0715 14.6538 35.0176 14.1646C34.9348 13.4116 34.8937 12.6451 34.8937 12.0966C34.9959 5.98692 40.5543 1.11662 47.3937 1.11662C51.1286 1.11662 54.5253 2.57148 56.8216 4.87135L59.7121 3.5657L64.2166 1.65123C64.2166 2.20171 64.3225 2.72843 64.1661 3.27123L64.1654 3.27361C64.0417 3.69422 63.7385 4.18517 63.3784 4.6717C63.0098 5.16964 62.5494 5.70519 62.0696 6.22166C61.4242 6.91654 60.7317 7.58992 60.1601 8.10576Z"
                  stroke-miterlimit="5.75877"
                  stroke-linecap="round" mask="url(#path-5-inside-4)"/>
        </g>
        <g id="outLine1">
            <mask id="path-6-inside-5" fill="white">
                <path fill-rule="evenodd" clip-rule="evenodd"
                      d="M60.3453 8.07633C60.8934 7.57533 61.5362 6.946 62.1379 6.2982C62.6183 5.78095 63.0801 5.24392 63.4501 4.74396C63.8108 4.25669 64.1186 3.7598 64.2449 3.33024L64.2457 3.32759C64.4062 2.77058 64.2353 2.19296 64.2353 1.62401L59.72 3.53873L56.8292 4.8396C54.5237 2.54419 51.1596 1.10914 47.4253 1.10914C40.5648 1.10914 34.8753 5.98158 34.8753 12.1392C34.8753 12.6896 34.9165 13.458 34.9995 14.2126C35.0507 14.6782 35.1194 15.1543 35.2085 15.5775C31.132 15.3081 26.0301 13.6363 21.4207 11.3129C16.631 8.88568 14.122 6.85042 12.8174 5.44964C12.1659 4.75011 11.8163 4.21052 11.6322 3.86077C11.5401 3.68585 11.4892 3.55792 11.4624 3.48056C11.3467 3.14576 11.2711 2.80262 11.2095 2.45547L10.5688 3.12734C10.118 3.60485 9.76805 4.33575 9.49418 5.16029C9.21747 5.99341 9.01909 6.97898 8.91994 8.03753C8.722 10.1505 8.91512 12.6029 9.71605 14.7719C10.2462 16.216 11.4039 17.5478 12.3855 18.4952C12.583 18.6858 12.7754 18.8628 12.957 19.024C12.5424 18.952 12.0818 18.8449 11.617 18.6861C10.8562 18.426 10.3407 18.1716 10.0222 17.9883C9.86286 17.8966 9.75259 17.8226 9.68535 17.7743C9.65172 17.7502 9.62882 17.7324 9.6159 17.7221L9.60329 17.7118L9.07872 17.2484L8.81242 17.9C8.26457 19.2405 8.56683 21.0004 9.34996 22.7258C10.1432 24.4735 11.4736 26.2881 13.15 27.8001C14.069 28.632 15.3133 29.3052 16.3741 29.7878L12.963 29.882L12.9361 30.3398C12.8471 31.8569 13.6028 33.1732 14.6784 34.2621C15.7548 35.3517 17.2008 36.2665 18.6254 36.9989C20.055 37.7337 21.4901 38.2984 22.5651 38.679C22.8791 38.7901 23.1629 38.8857 23.4077 38.9655C20.3359 41.1211 16.8539 42.3992 13.1653 42.3992C11.0654 42.3992 8.868 42.0611 6.93256 41.4844L4.56262 40.7782L6.47204 42.3497C12.0235 46.9185 19.348 50.1267 27.162 49.7085C47.6816 48.6267 59.2717 31.0778 59.935 13.85C60.071 13.7681 60.255 13.6489 60.4877 13.4801C61.0132 13.0987 61.7881 12.4635 62.8188 11.4327C63.8639 10.3876 64.709 9.2573 65.2913 8.39211C65.5831 7.95857 65.8105 7.58931 65.9654 7.32739C66.2915 6.77617 66.5805 6.20342 66.8819 5.63871C65.0572 6.43175 63.2118 7.33658 61.2917 7.87731C60.9499 7.97069 60.6291 8.03382 60.3453 8.07633ZM65.4829 6.62734L65.7329 6.51797C65.9155 6.43759 66.0119 6.38609 66.1938 6.30703C66.1023 6.47861 66.019 6.62226 65.9243 6.7914C65.6463 7.28799 65.3885 7.75552 65.0695 8.22952C64.4938 9.08484 63.6608 10.1985 62.6338 11.2255C61.6125 12.2468 60.8495 12.8714 60.3386 13.2422C60.0146 13.4772 59.7918 13.6104 59.6684 13.6781C59.0774 30.8519 47.5596 48.3392 27.173 49.4138C19.2254 49.8392 11.939 46.443 5.926 41.4944C8.35106 42.2651 10.6998 42.7041 13.1923 42.7041C17.1506 42.7041 20.877 41.3008 24.1063 38.9047C23.7926 38.8093 23.2922 38.6134 22.6923 38.4011C21.6251 38.0233 20.2034 37.4636 18.7897 36.737C17.3779 36.0113 15.9635 35.1136 14.919 34.0562C13.8664 32.9906 13.1841 31.701 13.2734 30.1792L17.8068 30.054C17.5207 29.9448 17.19 29.8121 16.835 29.6574C15.7571 29.1879 14.4391 28.5092 13.4718 27.6656C13.4403 27.6381 13.4092 27.6104 13.3784 27.5826C11.7298 26.0958 10.425 24.3139 9.65023 22.6067C8.95127 21.0667 8.56562 19.3681 9.22373 17.7578C9.88729 18.3439 10.7171 18.6912 11.547 18.9749C12.4702 19.2904 13.3739 19.4076 13.9499 19.4503C13.6106 19.1797 13.1329 18.7783 12.621 18.2843C11.6478 17.3451 10.5308 16.052 10.0247 14.6734C9.2423 12.5547 9.05104 10.1487 9.24572 8.07043C9.34313 7.0305 9.5376 6.06777 9.80598 5.25977C10.0732 4.45521 10.4186 3.78927 10.8269 3.35676L11.1743 3.00625C11.1743 3.00625 11.2095 3.33047 11.2329 3.45156C11.911 5.86844 16.5324 9.176 21.3126 11.5856C26.0929 13.9952 31.4221 15.7191 35.6202 15.9041C35.4901 15.4215 35.3927 14.8017 35.3248 14.1847C35.2429 13.4396 35.2024 12.6823 35.2024 12.1441C35.2723 6.13817 40.8479 1.52222 47.4523 1.41405C51.1899 1.41405 54.5695 2.91063 56.8188 5.23281L59.8771 3.85041L63.9623 2.08202C63.9623 2.50446 64.1131 2.80325 63.9845 3.24945L63.9842 3.25051C63.8737 3.62633 63.5934 4.08759 63.2361 4.57041C62.875 5.05829 62.4212 5.58642 61.9451 6.09895C61.0942 7.01504 60.1626 7.89152 59.5429 8.41166L59.4801 8.46397C59.5737 8.46122 59.687 8.45583 59.8171 8.44591C60.2172 8.41541 60.7739 8.34216 61.3988 8.17135C62.7929 7.7791 64.15 7.21477 65.4829 6.62734Z"/>
            </mask>
            <path d="M65.8336 6.74678C65.96 6.69115 66.0174 6.54361 65.9617 6.41724C65.9061 6.29087 65.7586 6.23353 65.6322 6.28916L65.8336 6.74678ZM65.3821 6.39857C65.2557 6.45426 65.1985 6.60182 65.2541 6.72816C65.3098 6.85451 65.4574 6.91179 65.5837 6.85611L65.3821 6.39857ZM59.3207 8.27145C59.2143 8.35953 59.1995 8.51713 59.2876 8.62346C59.3757 8.72978 59.5333 8.74458 59.6396 8.6565L59.3207 8.27145ZM59.7036 8.60316C59.8093 8.5144 59.8231 8.35671 59.7344 8.25095C59.6456 8.14518 59.4879 8.1314 59.3822 8.22016L59.7036 8.60316ZM65.6322 6.28916C65.5712 6.31601 65.4453 6.3707 65.3821 6.39857L65.5837 6.85611C65.6628 6.82126 65.7525 6.78248 65.8336 6.74678L65.6322 6.28916ZM59.6396 8.6565C59.6606 8.63912 59.6819 8.62133 59.7036 8.60316L59.3822 8.22016C59.3612 8.23771 59.3407 8.25481 59.3207 8.27145L59.6396 8.6565ZM60.3453 8.07633L60.0079 7.70724L58.7973 8.8137L60.4193 8.57081L60.3453 8.07633ZM62.1379 6.2982L62.5042 6.63848L62.5042 6.63848L62.1379 6.2982ZM61.2917 7.87731L61.4234 8.35965L61.4272 8.35859L61.2917 7.87731ZM65.7329 6.51797L65.9333 6.97605L65.9344 6.97559L65.7329 6.51797ZM65.4829 6.62734L65.2825 6.16926L65.2813 6.1698L65.4829 6.62734ZM61.3988 8.17135L61.5307 8.65367L61.5342 8.65266L61.3988 8.17135ZM59.8171 8.44591L59.8552 8.94446L59.8552 8.94446L59.8171 8.44591ZM59.4801 8.46397L59.1599 8.07998L58.049 9.00642L59.4949 8.96376L59.4801 8.46397ZM59.5429 8.41166L59.8631 8.79565L59.8643 8.79465L59.5429 8.41166ZM61.9451 6.09895L61.5788 5.75868L61.5788 5.75868L61.9451 6.09895ZM63.2361 4.57041L62.8342 4.27295L62.8342 4.27295L63.2361 4.57041ZM63.9842 3.25051L64.4639 3.39159L64.4647 3.38887L63.9842 3.25051ZM63.9845 3.24945L63.5041 3.11101L63.504 3.11109L63.9845 3.24945ZM63.9623 2.08202H64.4623V1.32075L63.7637 1.62316L63.9623 2.08202ZM59.8771 3.85041L59.6784 3.39149L59.6711 3.39479L59.8771 3.85041ZM56.8188 5.23281L56.4597 5.58069L56.7044 5.83327L57.0248 5.68843L56.8188 5.23281ZM47.4523 1.41405V0.913988L47.4442 0.914122L47.4523 1.41405ZM35.2024 12.1441L34.7024 12.1383V12.1441H35.2024ZM35.3248 14.1847L34.8278 14.2393L34.8278 14.2393L35.3248 14.1847ZM35.6202 15.9041L35.5982 16.4036L36.2808 16.4337L36.103 15.774L35.6202 15.9041ZM21.3126 11.5856L21.5377 11.1391L21.5377 11.1391L21.3126 11.5856ZM11.2329 3.45156L10.742 3.54657L10.7459 3.56679L10.7515 3.58662L11.2329 3.45156ZM11.1743 3.00625L11.6714 2.95235L11.5582 1.90861L10.8192 2.65428L11.1743 3.00625ZM10.8269 3.35676L10.4717 3.00469L10.4633 3.01352L10.8269 3.35676ZM9.80598 5.25977L10.2805 5.41738L10.2805 5.41738L9.80598 5.25977ZM9.24572 8.07043L8.7479 8.0238L8.7479 8.0238L9.24572 8.07043ZM10.0247 14.6734L10.4941 14.5011L10.4938 14.5002L10.0247 14.6734ZM12.621 18.2843L12.9682 17.9245L12.9682 17.9245L12.621 18.2843ZM13.9499 19.4503L13.913 19.949L15.5271 20.0686L14.2616 19.0594L13.9499 19.4503ZM11.547 18.9749L11.7087 18.5017L11.7087 18.5017L11.547 18.9749ZM9.22373 17.7578L9.55475 17.3831L9.02719 16.9171L8.76089 17.5686L9.22373 17.7578ZM9.65023 22.6067L9.19493 22.8134L9.19493 22.8134L9.65023 22.6067ZM13.3784 27.5826L13.714 27.2119L13.7133 27.2113L13.3784 27.5826ZM13.4718 27.6656L13.1432 28.0424L13.1432 28.0424L13.4718 27.6656ZM16.835 29.6574L17.0347 29.1991L17.0347 29.1991L16.835 29.6574ZM17.8068 30.054L17.8206 30.5538L20.3374 30.4843L17.9851 29.5868L17.8068 30.054ZM13.2734 30.1792L13.2596 29.6794L12.8012 29.6921L12.7743 30.1499L13.2734 30.1792ZM14.919 34.0562L14.5632 34.4076L14.5633 34.4076L14.919 34.0562ZM18.7897 36.737L19.0183 36.2923L19.0183 36.2923L18.7897 36.737ZM22.6923 38.4011L22.5255 38.8724L22.5255 38.8724L22.6923 38.4011ZM24.1063 38.9047L24.4043 39.3063L25.2011 38.715L24.2518 38.4263L24.1063 38.9047ZM5.926 41.4944L6.07744 41.0179L3.60565 40.2323L5.60827 41.8804L5.926 41.4944ZM27.173 49.4138L27.1467 48.9145L27.1463 48.9145L27.173 49.4138ZM59.6684 13.6781L59.428 13.2397L59.1784 13.3765L59.1687 13.6609L59.6684 13.6781ZM60.3386 13.2422L60.6322 13.6469L60.6322 13.6469L60.3386 13.2422ZM62.6338 11.2255L62.9873 11.5791L62.9873 11.5791L62.6338 11.2255ZM65.0695 8.22952L65.4843 8.5087L65.4843 8.5087L65.0695 8.22952ZM65.9243 6.7914L65.488 6.54716L65.488 6.54717L65.9243 6.7914ZM65.9654 7.32739L66.3957 7.582L66.3957 7.58199L65.9654 7.32739ZM65.2913 8.39211L64.8765 8.11293L64.8765 8.11293L65.2913 8.39211ZM62.8188 11.4327L62.4653 11.0792L62.4653 11.0792L62.8188 11.4327ZM60.4877 13.4801L60.194 13.0754L60.194 13.0754L60.4877 13.4801ZM59.935 13.85L59.6771 13.4217L59.4458 13.5609L59.4354 13.8308L59.935 13.85ZM27.162 49.7085L27.1357 49.2092L27.1353 49.2092L27.162 49.7085ZM6.47204 42.3497L6.78977 41.9636L6.78977 41.9636L6.47204 42.3497ZM4.56262 40.7782L4.70541 40.2991L2.33547 39.5929L4.24489 41.1643L4.56262 40.7782ZM6.93256 41.4844L7.07534 41.0052L7.07534 41.0052L6.93256 41.4844ZM23.4077 38.9655L23.6949 39.3748L24.5138 38.8001L23.5626 38.4901L23.4077 38.9655ZM22.5651 38.679L22.732 38.2076L22.732 38.2076L22.5651 38.679ZM18.6254 36.9989L18.3968 37.4435L18.3968 37.4435L18.6254 36.9989ZM14.6784 34.2621L14.3227 34.6135L14.3227 34.6135L14.6784 34.2621ZM12.9361 30.3398L13.4353 30.3691L13.4353 30.3691L12.9361 30.3398ZM12.963 29.882L12.9492 29.3822L12.4907 29.3949L12.4639 29.8527L12.963 29.882ZM16.3741 29.7878L16.3879 30.2876L18.5492 30.2279L16.5811 29.3327L16.3741 29.7878ZM13.15 27.8001L13.4855 27.4294L13.4848 27.4288L13.15 27.8001ZM9.34996 22.7258L8.89466 22.9325L8.89466 22.9325L9.34996 22.7258ZM8.81242 17.9L9.27525 18.0892L9.27525 18.0892L8.81242 17.9ZM9.07872 17.2484L9.40974 16.8737L8.88218 16.4077L8.61588 17.0593L9.07872 17.2484ZM9.60329 17.7118L9.27226 18.0866L9.27963 18.0931L9.28725 18.0993L9.60329 17.7118ZM9.6159 17.7221L9.29983 18.1096L9.30413 18.113L9.6159 17.7221ZM9.68535 17.7743L9.97701 17.3682L9.977 17.3682L9.68535 17.7743ZM10.0222 17.9883L10.2716 17.555L10.2716 17.555L10.0222 17.9883ZM11.617 18.6861L11.7787 18.2129L11.7787 18.2129L11.617 18.6861ZM12.957 19.024L12.8714 19.5166L14.6035 19.8175L13.289 18.6502L12.957 19.024ZM12.3855 18.4952L12.7328 18.1354L12.7328 18.1354L12.3855 18.4952ZM9.71605 14.7719L10.1854 14.5996L10.1851 14.5987L9.71605 14.7719ZM8.91994 8.03753L8.42212 7.9909L8.42212 7.9909L8.91994 8.03753ZM9.49418 5.16029L9.01967 5.00269L9.01967 5.00269L9.49418 5.16029ZM10.5688 3.12734L10.207 2.7823L10.2053 2.7841L10.5688 3.12734ZM11.2095 2.45547L11.7018 2.36808L11.5292 1.39563L10.8476 2.11043L11.2095 2.45547ZM11.4624 3.48056L10.9899 3.64393L10.9899 3.64393L11.4624 3.48056ZM11.6322 3.86077L11.1898 4.09368L11.1898 4.09368L11.6322 3.86077ZM12.8174 5.44964L13.1833 5.10887L13.1833 5.10887L12.8174 5.44964ZM21.4207 11.3129L21.1947 11.7589L21.1957 11.7594L21.4207 11.3129ZM35.2085 15.5775L35.1755 16.0764L35.8336 16.1199L35.6978 15.4746L35.2085 15.5775ZM34.9995 14.2126L35.4965 14.1579L35.4965 14.1579L34.9995 14.2126ZM56.8292 4.8396L56.4764 5.19392L56.7204 5.43685L57.0343 5.29556L56.8292 4.8396ZM59.72 3.53873L59.5247 3.0783L59.5148 3.08277L59.72 3.53873ZM64.2353 1.62401H64.7353V0.868889L64.0401 1.16369L64.2353 1.62401ZM64.2457 3.32759L63.7653 3.18916L63.7652 3.18923L64.2457 3.32759ZM64.2449 3.33024L64.7246 3.47134L64.7254 3.46861L64.2449 3.33024ZM63.4501 4.74396L63.0482 4.44651L63.0482 4.44651L63.4501 4.74396ZM66.1938 6.30703L66.635 6.54242L67.3105 5.27655L65.9945 5.84847L66.1938 6.30703ZM66.8819 5.63871L67.323 5.8741L67.9985 4.60822L66.6826 5.18015L66.8819 5.63871ZM60.6826 8.44541C61.24 7.936 61.8925 7.29709 62.5042 6.63848L61.7715 5.95793C61.1799 6.5949 60.5469 7.21466 60.0079 7.70724L60.6826 8.44541ZM60.4193 8.57081C60.7202 8.52576 61.0604 8.45882 61.4234 8.35964L61.1599 7.39499C60.8394 7.48255 60.5381 7.54187 60.2712 7.58184L60.4193 8.57081ZM65.2813 6.1698C63.9519 6.75568 62.6216 7.30787 61.2634 7.69004L61.5342 8.65266C62.9641 8.25033 64.3481 7.67385 65.6845 7.08488L65.2813 6.1698ZM61.267 7.68904C60.679 7.84975 60.1546 7.91872 59.7791 7.94736L59.8552 8.94446C60.2797 8.91209 60.8688 8.83456 61.5306 8.65366L61.267 7.68904ZM59.7791 7.94736C59.6573 7.95665 59.5517 7.96165 59.4654 7.96419L59.4949 8.96376C59.5956 8.96078 59.7168 8.95501 59.8552 8.94446L59.7791 7.94736ZM59.8643 8.79465C60.5014 8.25997 61.4479 7.36899 62.3115 6.43923L61.5788 5.75868C60.7406 6.66109 59.8239 7.52306 59.2214 8.02867L59.8643 8.79465ZM62.3115 6.43923C62.7949 5.91882 63.262 5.37586 63.638 4.86786L62.8342 4.27295C62.4879 4.74073 62.0475 5.25402 61.5788 5.75868L62.3115 6.43923ZM63.638 4.86786C64.0009 4.37752 64.327 3.85692 64.4639 3.39159L63.5045 3.10942C63.4203 3.39574 63.186 3.79766 62.8342 4.27295L63.638 4.86786ZM64.4647 3.38887L64.465 3.38781L63.504 3.11109L63.5037 3.11215L64.4647 3.38887ZM63.7637 1.62316L59.6784 3.39155L60.0757 4.30926L64.161 2.54087L63.7637 1.62316ZM59.6711 3.39479L56.6129 4.7772L57.0248 5.68843L60.083 4.30602L59.6711 3.39479ZM57.178 4.88493C54.8317 2.46264 51.3212 0.914055 47.4523 0.914055V1.91405C51.0586 1.91405 54.3073 3.35862 56.4597 5.58069L57.178 4.88493ZM47.4442 0.914122C40.6434 1.02551 34.7763 5.793 34.7024 12.1383L35.7023 12.1499C35.7683 6.48333 41.0524 2.01894 47.4605 1.91399L47.4442 0.914122ZM34.7024 12.1441C34.7024 12.7027 34.7441 13.4785 34.8278 14.2393L35.8218 14.13C35.7416 13.4008 35.7024 12.6618 35.7024 12.1441H34.7024ZM34.8278 14.2393C34.8968 14.8668 34.9976 15.5156 35.1374 16.0342L36.103 15.774C35.9826 15.3273 35.8885 14.7366 35.8218 14.13L34.8278 14.2393ZM35.6422 15.4046C31.5411 15.2239 26.2836 13.5314 21.5377 11.1391L21.0875 12.0321C25.9021 14.459 31.303 16.2144 35.5982 16.4036L35.6422 15.4046ZM21.5377 11.1391C19.1685 9.94489 16.8474 8.53218 15.0415 7.12673C14.1384 6.42387 13.3735 5.73001 12.7975 5.07352C12.2162 4.41098 11.8548 3.81737 11.7143 3.3165L10.7515 3.58662C10.95 4.29419 11.4206 5.02036 12.0459 5.73304C12.6765 6.45176 13.4928 7.18856 14.4273 7.91589C16.2968 9.37084 18.6764 10.8167 21.0875 12.0321L21.5377 11.1391ZM11.7238 3.35655C11.716 3.31624 11.7033 3.22273 11.6912 3.12303C11.6855 3.07667 11.6805 3.03379 11.677 3.00245C11.6752 2.98681 11.6738 2.97413 11.6728 2.96543C11.6724 2.96108 11.672 2.95773 11.6717 2.9555C11.6716 2.95439 11.6715 2.95356 11.6715 2.95303C11.6714 2.95277 11.6714 2.95257 11.6714 2.95246C11.6714 2.9524 11.6714 2.95236 11.6714 2.95235C11.6714 2.95234 11.6714 2.95233 11.6714 2.95233C11.6714 2.95233 11.6714 2.95234 11.6714 2.95234C11.6714 2.95234 11.6714 2.95235 11.1743 3.00625C10.6772 3.06015 10.6772 3.06016 10.6772 3.06017C10.6772 3.06017 10.6772 3.06018 10.6772 3.06019C10.6772 3.06021 10.6772 3.06024 10.6772 3.06027C10.6772 3.06033 10.6773 3.06041 10.6773 3.06051C10.6773 3.06071 10.6773 3.06098 10.6774 3.06133C10.6774 3.06204 10.6775 3.06304 10.6777 3.06433C10.678 3.06692 10.6784 3.07065 10.6789 3.0754C10.68 3.0849 10.6815 3.0985 10.6834 3.11515C10.6871 3.14838 10.6924 3.19412 10.6985 3.24396C10.7098 3.33665 10.7264 3.46579 10.742 3.54657L11.7238 3.35655ZM10.8192 2.65428L10.4718 3.00479L11.182 3.70873L11.5294 3.35822L10.8192 2.65428ZM10.4633 3.01352C9.98421 3.52103 9.60976 4.2643 9.33147 5.10217L10.2805 5.41738C10.5367 4.64611 10.853 4.05751 11.1905 3.70001L10.4633 3.01352ZM9.33147 5.10217C9.04919 5.95203 8.84822 6.95282 8.7479 8.0238L9.74354 8.11706C9.83804 7.10819 10.026 6.18352 10.2805 5.41738L9.33147 5.10217ZM8.7479 8.0238C8.54777 10.1602 8.74219 12.6438 9.5557 14.8466L10.4938 14.5002C9.74242 12.4657 9.55431 10.1372 9.74354 8.11706L8.7479 8.0238ZM9.55537 14.8457C10.1016 16.3335 11.2863 17.6911 12.2737 18.644L12.9682 17.9245C12.0094 16.9991 10.9601 15.7704 10.4941 14.5011L9.55537 14.8457ZM12.2737 18.644C12.7996 19.1516 13.2897 19.5634 13.6382 19.8412L14.2616 19.0594C13.9314 18.796 13.4662 18.4051 12.9682 17.9245L12.2737 18.644ZM13.9868 18.9517C13.4355 18.9108 12.5776 18.7987 11.7087 18.5017L11.3853 19.448C12.3628 19.7821 13.3122 19.9044 13.913 19.949L13.9868 18.9517ZM11.7087 18.5017C10.8918 18.2225 10.1409 17.9008 9.55475 17.3831L8.89271 18.1325C9.63368 18.7871 10.5424 19.1599 11.3853 19.448L11.7087 18.5017ZM8.76089 17.5686C8.02559 19.3678 8.47415 21.2253 9.19493 22.8134L10.1055 22.4001C9.42839 20.9082 9.10565 19.3683 9.68657 17.947L8.76089 17.5686ZM9.19493 22.8134C10.0005 24.5883 11.3483 26.4251 13.0436 27.9539L13.7133 27.2113C12.1112 25.7665 10.8496 24.0394 10.1055 22.4001L9.19493 22.8134ZM13.0429 27.9533C13.076 27.9832 13.1094 28.0129 13.1432 28.0424L13.8005 27.2887C13.7712 27.2632 13.7424 27.2376 13.714 27.2119L13.0429 27.9533ZM13.1432 28.0424C14.1688 28.9369 15.5429 29.6399 16.6353 30.1158L17.0347 29.1991C15.9714 28.7358 14.7095 28.0815 13.8005 27.2887L13.1432 28.0424ZM16.6353 30.1158C16.9983 30.274 17.3364 30.4097 17.6286 30.5212L17.9851 29.5868C17.7051 29.48 17.3816 29.3502 17.0347 29.1991L16.6353 30.1158ZM17.793 29.5542L13.2596 29.6794L13.2873 30.679L17.8206 30.5538L17.793 29.5542ZM12.7743 30.1499C12.6742 31.8558 13.4457 33.2762 14.5632 34.4076L15.2747 33.7048C14.2872 32.7051 13.6941 31.5462 13.7726 30.2085L12.7743 30.1499ZM14.5633 34.4076C15.6608 35.5187 17.1278 36.4449 18.5611 37.1816L19.0183 36.2923C17.628 35.5777 16.2661 34.7085 15.2747 33.7048L14.5633 34.4076ZM18.5611 37.1816C20.0012 37.9219 21.4452 38.49 22.5255 38.8724L22.8592 37.9297C21.805 37.5565 20.4055 37.0054 19.0183 36.2923L18.5611 37.1816ZM22.5255 38.8724C23.0971 39.0747 23.6342 39.2838 23.9609 39.3831L24.2518 38.4263C23.951 38.3349 23.4874 38.1521 22.8592 37.9297L22.5255 38.8724ZM23.8084 38.5032C20.6523 40.845 17.0282 42.2041 13.1923 42.2041V43.2041C17.273 43.2041 21.1018 41.7567 24.4043 39.3063L23.8084 38.5032ZM13.1923 42.2041C10.7614 42.2041 8.46432 41.7764 6.07744 41.0179L5.77456 41.9709C8.2378 42.7537 10.6382 43.2041 13.1923 43.2041V42.2041ZM5.60827 41.8804C11.6822 46.8792 19.0877 50.3473 27.1998 49.9131L27.1463 48.9145C19.3632 49.3311 12.1958 46.0068 6.24373 41.1083L5.60827 41.8804ZM27.1994 49.9131C47.9182 48.8209 59.5709 31.0477 60.1681 13.6953L59.1687 13.6609C58.5838 30.6562 47.2009 47.8574 27.1467 48.9145L27.1994 49.9131ZM59.9087 14.1166C60.0522 14.0379 60.2928 13.8932 60.6322 13.6469L60.0449 12.8375C59.7365 13.0613 59.5314 13.183 59.428 13.2397L59.9087 14.1166ZM60.6322 13.6469C61.1675 13.2584 61.9503 12.6161 62.9873 11.5791L62.2802 10.872C61.2747 11.8775 60.5316 12.4844 60.0449 12.8375L60.6322 13.6469ZM62.9873 11.5791C64.0445 10.5219 64.8976 9.38047 65.4843 8.5087L64.6547 7.95034C64.0901 8.78922 63.2772 9.87501 62.2802 10.872L62.9873 11.5791ZM65.4843 8.5087C65.8171 8.01421 66.0855 7.52709 66.3606 7.03564L65.488 6.54717C65.2072 7.0489 64.96 7.49684 64.6547 7.95034L65.4843 8.5087ZM65.5351 7.07278C65.3843 7.32763 65.1621 7.68856 64.8765 8.11293L65.7061 8.6713C66.0041 8.22858 66.2366 7.85099 66.3957 7.582L65.5351 7.07278ZM64.8765 8.11293C64.3053 8.96167 63.4803 10.0642 62.4653 11.0792L63.1724 11.7863C64.2476 10.7111 65.1127 9.55293 65.7061 8.67129L64.8765 8.11293ZM62.4653 11.0792C61.4503 12.0942 60.6953 12.7117 60.194 13.0754L60.7813 13.8848C61.3312 13.4857 62.1259 12.8328 63.1724 11.7863L62.4653 11.0792ZM60.194 13.0754C59.9722 13.2364 59.8001 13.3476 59.6771 13.4217L60.1929 14.2784C60.3419 14.1887 60.5379 14.0614 60.7813 13.8848L60.194 13.0754ZM59.4354 13.8308C58.779 30.8806 47.324 48.1448 27.1357 49.2092L27.1883 50.2078C48.0391 49.1085 59.7645 31.2751 60.4346 13.8693L59.4354 13.8308ZM27.1353 49.2092C19.4753 49.6192 12.2698 46.4736 6.78977 41.9636L6.15431 42.7357C11.7773 47.3634 19.2207 50.6342 27.1887 50.2077L27.1353 49.2092ZM6.78977 41.9636L4.88035 40.3922L4.24489 41.1643L6.15431 42.7357L6.78977 41.9636ZM4.41984 41.2574L6.78977 41.9636L7.07534 41.0052L4.70541 40.2991L4.41984 41.2574ZM6.78977 41.9636C8.76977 42.5536 11.0153 42.8992 13.1653 42.8992V41.8992C11.1156 41.8992 8.96622 41.5687 7.07534 41.0052L6.78977 41.9636ZM13.1653 42.8992C16.9733 42.8992 20.5537 41.5791 23.6949 39.3748L23.1205 38.5562C20.1181 40.6631 16.7345 41.8992 13.1653 41.8992V42.8992ZM23.5626 38.4901C23.3215 38.4115 23.0416 38.3172 22.732 38.2076L22.3983 39.1503C22.7165 39.2629 23.0043 39.3599 23.2527 39.4409L23.5626 38.4901ZM22.732 38.2076C21.67 37.8317 20.2571 37.2754 18.854 36.5542L18.3968 37.4435C19.8528 38.1919 21.3102 38.7651 22.3983 39.1503L22.732 38.2076ZM18.854 36.5542C17.4509 35.8329 16.0575 34.9467 15.0342 33.9107L14.3227 34.6135C15.4521 35.7568 16.9507 36.7002 18.3968 37.4435L18.854 36.5542ZM15.0342 33.9107C14.0107 32.8745 13.3578 31.6889 13.4353 30.3691L12.437 30.3105C12.3363 32.0248 13.195 33.4718 14.3227 34.6135L15.0342 33.9107ZM13.4353 30.3691L13.4621 29.9113L12.4639 29.8527L12.437 30.3105L13.4353 30.3691ZM16.5811 29.3327C15.5363 28.8574 14.3474 28.2095 13.4855 27.4294L12.8144 28.1708C13.7907 29.0544 15.0903 29.7531 16.1671 30.2429L16.5811 29.3327ZM8.89466 22.9325C9.71865 24.7479 11.0921 26.6174 12.8151 28.1714L13.4848 27.4288C11.855 25.9588 10.5677 24.199 9.80526 22.5192L8.89466 22.9325ZM8.34958 17.7109C7.72383 19.242 8.09099 21.1618 8.89466 22.9325L9.80526 22.5192C9.04267 20.839 8.8053 19.2391 9.27525 18.0892L8.34958 17.7109ZM8.61588 17.0593L8.34958 17.7109L9.27525 18.0892L9.54155 17.4376L8.61588 17.0593ZM9.93432 17.3371L9.40974 16.8737L8.74769 17.6232L9.27226 18.0866L9.93432 17.3371ZM9.93194 17.3347L9.91933 17.3244L9.28725 18.0993L9.29985 18.1096L9.93194 17.3347ZM9.977 17.3682C9.95022 17.3489 9.93402 17.3363 9.92766 17.3312L9.30413 18.113C9.32361 18.1286 9.35322 18.1514 9.3937 18.1804L9.977 17.3682ZM10.2716 17.555C10.1267 17.4716 10.0305 17.4066 9.97701 17.3682L9.39369 18.1804C9.47463 18.2386 9.59901 18.3217 9.77276 18.4217L10.2716 17.555ZM11.7787 18.2129C11.0471 17.9629 10.5611 17.7216 10.2716 17.555L9.77276 18.4217C10.1203 18.6217 10.6653 18.8892 11.4553 19.1592L11.7787 18.2129ZM13.0426 18.5314C12.648 18.4629 12.2136 18.3616 11.7787 18.2129L11.4553 19.1592C11.9499 19.3282 12.4368 19.4411 12.8714 19.5166L13.0426 18.5314ZM12.0383 18.855C12.2412 19.0508 12.4388 19.2325 12.625 19.3979L13.289 18.6502C13.1121 18.493 12.9248 18.3208 12.7328 18.1354L12.0383 18.855ZM9.24668 14.9443C9.81696 16.4976 11.0423 17.8937 12.0383 18.855L12.7328 18.1354C11.7654 17.2019 10.6755 15.9345 10.1854 14.5996L9.24668 14.9443ZM8.42212 7.9909C8.21874 10.162 8.415 12.692 9.247 14.9451L10.1851 14.5987C9.41523 12.5139 9.22527 10.139 9.41776 8.08417L8.42212 7.9909ZM9.01967 5.00269C8.72905 5.87767 8.52418 6.9013 8.42212 7.9909L9.41776 8.08417C9.51401 7.05666 9.70588 6.10915 9.96869 5.3179L9.01967 5.00269ZM10.2053 2.7841C9.67916 3.34137 9.30113 4.15529 9.01967 5.00269L9.96869 5.3179C10.235 4.51621 10.5569 3.86834 10.9324 3.47059L10.2053 2.7841ZM10.8476 2.11043L10.207 2.7823L10.9307 3.47238L11.5713 2.8005L10.8476 2.11043ZM12.0747 3.62786C11.994 3.47466 11.9532 3.36995 11.935 3.31719L10.9899 3.64393C11.0251 3.7459 11.0863 3.89704 11.1898 4.09368L12.0747 3.62786ZM13.1833 5.10887C12.5584 4.43795 12.2359 3.93408 12.0747 3.62786L11.1898 4.09368C11.3968 4.48696 11.7734 5.06227 12.4515 5.7904L13.1833 5.10887ZM21.6467 10.8669C16.8918 8.45735 14.4363 6.45424 13.1833 5.10887L12.4515 5.7904C13.8077 7.24661 16.3701 9.31401 21.1947 11.7589L21.6467 10.8669ZM35.2415 15.0786C31.2553 14.8152 26.2205 13.1724 21.6458 10.8664L21.1957 11.7594C25.8396 14.1002 31.0088 15.8011 35.1755 16.0764L35.2415 15.0786ZM34.5025 14.2672C34.5548 14.7428 34.6257 15.2361 34.7192 15.6805L35.6978 15.4746C35.6132 15.0725 35.5466 14.6137 35.4965 14.1579L34.5025 14.2672ZM34.3753 12.1392C34.3753 12.7101 34.4178 13.4968 34.5025 14.2672L35.4965 14.1579C35.4153 13.4192 35.3753 12.6692 35.3753 12.1392H34.3753ZM47.4253 0.609138C40.3553 0.609138 34.3753 5.64325 34.3753 12.1392H35.3753C35.3753 6.31991 40.7744 1.60914 47.4253 1.60914V0.609138ZM57.1819 4.48527C54.7791 2.09295 51.2867 0.609138 47.4253 0.609138V1.60914C51.0326 1.60914 54.2683 2.99543 56.4764 5.19392L57.1819 4.48527ZM64.7254 3.46861L64.7262 3.46596L63.7652 3.18923L63.7645 3.19188L64.7254 3.46861ZM63.852 5.04142C64.2183 4.54647 64.572 3.99031 64.7246 3.47133L63.7653 3.18915C63.6652 3.5293 63.4032 3.96691 63.0482 4.44651L63.852 5.04142ZM62.5042 6.63848C62.992 6.11334 63.4671 5.56148 63.852 5.04142L63.0482 4.44651C62.6931 4.92636 62.2446 5.44855 61.7715 5.95793L62.5042 6.63848ZM66.3606 7.03565C66.451 6.87417 66.5403 6.71987 66.635 6.54242L65.7527 6.07164C65.6643 6.23735 65.587 6.37034 65.488 6.54716L66.3606 7.03565ZM65.9945 5.84847C65.8963 5.89116 65.8211 5.92647 65.7506 5.95964C65.6806 5.99264 65.6162 6.02305 65.5315 6.06035L65.9344 6.97559C66.0322 6.93251 66.1074 6.89699 66.1766 6.86437C66.2455 6.83193 66.3095 6.80196 66.3931 6.76559L65.9945 5.84847ZM12.9768 30.3818L16.3879 30.2876L16.3603 29.288L12.9492 29.3822L12.9768 30.3818ZM59.5148 3.08277L56.624 4.38364L57.0343 5.29556L59.9252 3.99469L59.5148 3.08277ZM64.0401 1.16369L59.5248 3.0784L59.9152 3.99905L64.4305 2.08434L64.0401 1.16369ZM11.935 3.31719C11.8314 3.01752 11.7613 2.70312 11.7018 2.36808L10.7172 2.54286C10.7809 2.90213 10.862 3.27399 10.9899 3.64393L11.935 3.31719ZM65.6833 7.08542L65.9333 6.97605L65.5325 6.05989L65.2825 6.16926L65.6833 7.08542ZM59.2226 8.02767L59.1599 8.07998L59.8004 8.84796L59.8631 8.79565L59.2226 8.02767ZM64.7262 3.46603C64.8317 3.09965 64.8232 2.74358 64.7991 2.44065C64.7726 2.10731 64.7353 1.88391 64.7353 1.62401H63.7353C63.7353 1.93306 63.7834 2.28295 63.8022 2.51991C63.8235 2.78728 63.8202 2.99853 63.7653 3.18916L64.7262 3.46603ZM64.465 3.38788C64.5546 3.07675 64.544 2.81708 64.5182 2.59826C64.4903 2.36178 64.4623 2.25467 64.4623 2.08202H63.4623C63.4623 2.33181 63.5097 2.58532 63.5251 2.71539C63.5425 2.86312 63.543 2.97594 63.5041 3.11101L64.465 3.38788ZM66.4407 5.40332C66.1322 5.98153 65.8537 6.53422 65.5351 7.07279L66.3957 7.58199C66.7294 7.01813 67.0289 6.42532 67.323 5.8741L66.4407 5.40332ZM61.4272 8.35859C63.3904 7.80573 65.2862 6.87742 67.0812 6.09727L66.6826 5.18015C64.8282 5.98609 63.0332 6.86742 61.1561 7.39603L61.4272 8.35859Z"
                   mask="url(#path-6-inside-5)"/>
        </g>
        <path id="outLineHalf"
              d="M35.9278 16.1547C35.5978 15.1847 35.4378 13.2447 35.4378 12.1847C35.4378 6.36472 40.8378 1.65469 47.4878 1.65469C51.2278 1.65469 54.5678 3.14471 56.7778 5.48471L59.9778 4.04471L63.7978 2.42471C63.7978 2.44471 63.9978 2.64471 63.8278 3.23471C63.4278 4.59471 60.4378 7.51475 59.2478 8.46475L59.2078 8.70474C59.2078 8.70474 60.2078 8.75469 61.4878 8.40469C62.7678 8.04469 65.8278 6.71475 65.8278 6.71475C65.8278 6.71475 64.5578 9.09473 62.5278 11.1247C60.4978 13.1547 59.5078 13.5947 59.5078 13.5947C58.9678 30.7347 47.4978 48.1847 27.1978 49.2547C19.5378 49.6647 12.3323 46.5192 6.85229 42.0092C8.83229 42.5992 11.0778 42.9447 13.2278 42.9447C17.3678 42.9447 21.2378 41.3847 24.5678 38.8247C24.5678 38.8247 13.1878 35.6947 13.4978 30.4147L18.9278 30.2647C18.9278 30.2647 15.4478 29.1947 13.5478 27.4747C10.2878 24.5347 8.39778 20.4347 9.33778 18.1347C9.33778 18.1347 9.93779 18.6647 11.5178 19.2047C13.0978 19.7447 14.6078 19.7148 14.6078 19.7148C14.6078 19.7148 11.2278 17.3147 10.2478 14.6447C8.70778 10.4747 9.49416 5.11234 11.0142 3.50234C11.0142 3.50234 11.6078 6.91472 21.2578 11.8047C26.1578 14.2747 31.6478 16.0347 35.9278 16.1547ZM35.9278 16.1547C35.9278 16.4547 35.9378 15.8447 35.9278 16.1547Z"
               stroke-width="0.5" stroke-miterlimit="5.75877"/>
        <g id="birdFill">
            <path d="M61.4878 8.40565C60.2078 8.75565 59.2078 8.7057 59.2078 8.7057L59.2478 8.46571C60.4378 7.51571 63.4278 4.59566 63.8278 3.23566C63.9978 2.64566 63.7978 2.44567 63.7978 2.42567L59.9778 4.04566L56.7778 5.48566C54.5678 3.14566 51.2278 1.65565 47.4878 1.65565C40.8378 1.65565 35.4378 6.36568 35.4378 12.1857C35.4378 13.2457 35.5978 15.1856 35.9278 16.1556C31.6478 16.0356 26.1578 14.2757 21.2578 11.8057C11.6078 6.91567 11.0078 3.53565 11.0078 3.53565C9.48778 5.14565 8.70778 10.4757 10.2478 14.6457C11.2278 17.3157 14.6078 19.7157 14.6078 19.7157C14.6078 19.7157 13.0978 19.7457 11.5178 19.2057C9.93779 18.6657 9.33778 18.1357 9.33778 18.1357C8.39778 20.4357 10.2878 24.5357 13.5478 27.4757C15.4478 29.1957 18.9278 30.2657 18.9278 30.2657L13.4978 30.4157C13.1878 35.6957 24.5678 38.8257 24.5678 38.8257C21.2378 41.3857 17.3678 42.9457 13.2278 42.9457C11.0778 42.9457 8.83229 42.6001 6.85229 42.0101C12.3323 46.5201 19.5378 49.6657 27.1978 49.2557C47.4978 48.1857 58.9678 30.7356 59.5078 13.5956C59.5078 13.5956 60.4978 13.1557 62.5278 11.1257C64.5578 9.09568 65.8278 6.71571 65.8278 6.71571C65.8278 6.71571 62.7678 8.04565 61.4878 8.40565Z"
                  fill="white"/>
        </g>
    </g>
</svg>
