<svg width="636" height="79" viewBox="0 0 636 79" fill="none" xmlns="http://www.w3.org/2000/svg">
<path d="M-6.30063 0.424574L22.0376 4.36043L61.3963 5.14761L36.4692 -0.362606L31.4837 43.4567L19.9385 72.8446L5.50698 72.5822L1.57111 62.3489L6.29415 52.6404L9.44285 48.4422L7.34372 77.0428L28.8598 66.5472L40.6674 58.1507L53.2622 56.0515L62.7083 48.967L66.9066 41.3576L66.1194 35.8474L58.7724 35.0602L47.752 41.62L43.0289 48.4422L40.1426 56.3139L40.9298 68.3839L43.2913 74.6813L55.8861 72.5822L70.8424 63.3985L76.0902 48.7046L82.9124 35.3226L82.65 33.2235L81.8629 29.2876C82.825 32.6112 84.8016 39.6783 85.0116 41.3576C85.2215 43.0369 86.1486 47.655 86.5859 49.7541L87.1107 57.1011L82.9124 65.2352L85.2739 70.4831L96.032 68.1215L104.429 61.037L108.364 57.1011L117.81 55.002L132.504 46.8678L129.618 39.2585L128.044 33.4859L118.598 36.1098L112.038 43.4567L108.102 51.8533L106.79 70.7454L113.087 71.795L128.569 67.5967L135.915 60.2498L141.95 49.7541L143.787 40.308L138.277 71.795L150.347 45.2935L157.432 41.3576L165.041 38.9961L167.927 49.2293L163.729 59.4626L157.956 70.7454L172.125 50.8037L177.636 47.655L182.096 46.6054L185.245 51.8533L184.983 60.7746L181.572 67.8591L182.884 73.107L192.592 68.6463L201.776 56.0515L205.712 43.9815L212.796 38.2089L199.677 67.072L207.811 71.0078L220.143 67.8591L227.228 49.2293L230.901 46.0807L243.758 38.7337L253.729 38.2089L256.091 49.2293L249.531 38.2089L234.05 41.8824L222.505 68.1215L222.242 75.2061L234.837 69.1711L242.184 60.7746L250.056 52.1157L251.368 50.2789C249.006 56.2265 244.441 68.3314 245.07 69.1711C245.7 70.0107 243.408 73.7192 242.184 75.4685L256.353 66.2848L267.898 56.8387L270.26 41.8824L278.656 37.1593L297.811 8.2963L294.4 -0.100224L281.543 10.6578L272.884 31.3867L263.438 73.3694L272.359 68.3839L287.315 43.4567L293.35 44.2439L298.336 50.5413C294.487 53.9524 286.79 61.0894 286.79 62.3489C286.79 63.6084 292.563 70.0457 295.449 73.107L313.03 54.4772L345.566 5.40999L348.19 1.99891L359.211 1.73652L366.82 1.21173L395.421 1.73652L372.068 2.78608L349.764 74.9437L377.053 57.3635L401.718 45.2935L403.555 36.3722L400.144 29.8124L380.727 42.6696L374.429 55.7891L380.464 76.2557L393.846 69.6959L414.05 47.3926L418.511 40.8328L403.292 74.9437L429.794 40.308L441.077 44.2439L436.091 54.2148L433.205 64.9728L436.878 70.4831L445.8 67.072L453.671 55.2644L460.756 47.1302L482.214 10.0385L487.309 -3.12268L472.025 6.64208L458.014 36.7855L450.372 68.6271L466.93 73.7217L476.27 64.8061L480.091 46.5502L471.176 40.6065L463.109 50.7958L466.93 67.778L489.856 62.2588L497.073 46.5502L500.47 29.1435C501.319 32.6814 503.442 40.4366 505.14 43.1538C506.838 45.8709 506.131 53.3431 505.564 56.7395L501.743 66.5043L510.235 70.3253L525.094 55.8904L535.708 38.9082L537.406 32.9645L522.122 75.8445L539.104 64.8061L555.237 36.3609L542.925 78.3918L562.455 45.2766L572.22 42.7292L578.588 41.031L573.069 63.5324L574.342 72.0235L591.325 60.136L601.089 34.6627L609.58 29.1435L620.619 11.7367L628.685 1.97197L616.373 2.82108L605.335 15.9823L596.844 37.6346L593.447 70.3253L607.033 46.5502L617.647 33.8136L625.289 41.4556L622.317 47.8239L617.222 55.0413L612.977 55.8904L614.25 71.599L631.657 65.6552L641.422 54.1922L534.434 53.3431L541.652 21.5015L546.746 19.8033L516.178 52.9185L210.499 54.1922L219.415 10.0385L227.481 18.5296L228.33 24.8979" stroke="black" stroke-width="11"/>
</svg>
